<svg xmlns="http://www.w3.org/2000/svg" viewBox="0 0 582.66 316.97"><defs/><defs><style>.cls-1{fill:#fff}</style></defs><g id="Layer_2" data-name="Layer 2"><g id="Layer_1-2" data-name="Layer 1"><path d="M22.72 131.23c-7-9.4-10-19.09-11.31-29.49-1.63-13.34 5.27-23 15.24-29.35 18.71-12 39.58-19.53 61.26-24.34 11.66-2.59 23.79-3.2 35.32-6.16 16.06-4.14 31.63-10.13 47.65-14.46 30-8.09 59.9-16.69 90.3-22.85 16.59-3.36 34.09-2.53 51.2-2.89 14.1-.29 28.23.77 42.33.58C362.47 2.16 370.26-.33 378 0c14.08.66 28.11 2.5 42.13 4.12 32.34 3.72 60.47 18.15 87.6 34.92C524 49.13 540 59.55 556.19 69.7c15.14 9.48 21.35 24 24.79 40.82 5 24.42-1.45 45.94-15.75 65.26-5 6.77-12.08 12.48-19.21 17.15-26.27 17.22-55.24 28.9-84.53 39.88-18.8 7-37.36 14.5-55.35 23.72-27.14 13.93-55.2 26.24-83.21 38.47a385.45 385.45 0 01-47.16 17.33c-12.17 3.51-25 5.87-37.94 4-2.14-.32-4.57-.23-6.33-1.25q-22.08-12.93-43.92-26.27c-6-3.67-11.59-8.21-17.83-11.46-5.56-2.89-11.67-4.81-17.69-6.7-23.07-7.22-42.27-20.56-59.47-37.12-5.28-5.09-11.2-8.8-18.71-9.55-18.6-1.87-35.33-8.89-50.92-18.86C9.74 196.63 1.18 184.85.13 169c-.78-11.72 1.76-22.83 11.93-30.55 3.3-2.52 6.87-4.68 10.66-7.22zM471 175.52l.1.1a12.23 12.23 0 012.32-1.32c8.69-2.7 17.4-5.39 26.12-8a45.26 45.26 0 0023.33-16 71.56 71.56 0 00-7.37 3.43c-4.17 2-8.24 4.39-12.64 5.5-23 5.8-46.27 10.82-69.21 16.94-21.49 5.74-42.48 13.44-64.09 18.59a407.42 407.42 0 00-54.74 16.63c-12.83 5-25.84 9.6-38.58 14.83-6.4 2.62-12.85 5.57-18.44 9.55-8.43 6-16 13.05-18.22 24-1.37 6.74-.27 10.11 5.23 14.27 6.44 4.88 13.34 7.23 21.44 4.88 3.35-1 7-1.07 10.21-2.29 24.05-9.12 48-18.48 72.05-27.64 4.12-1.57 8.45-2.59 12.69-3.84a34 34 0 003.78-1.06c13.63-5.82 27.27-11.64 37.48-23 .28-.32.82-.41 1.76-.85-.3 2.22-.54 4-.9 6.76 9.55-1.18 18.94-1.09 27.56-3.64 24.51-7.24 48.79-15.31 72-26.35 8.94-4.27 18.22-7.84 27.33-11.78A17.84 17.84 0 00534 183c5-3.9 10.18-7.54 14.68-11.92 5.43-5.29 11-10.74 15.14-17 10-14.94 10-31.56 4.69-47.91-4-12.33-12.36-22-26.17-22.89-13.53-.85-27.55-1.37-40.72 1.19a393.86 393.86 0 00-57.5 16.11c-26.23 9.4-53 17.85-77.33 31.85a81.12 81.12 0 01-9.41 4.49c-9.32 3.86-18.71 7.55-28 11.4q-37.08 15.3-74.15 30.64a9.6 9.6 0 01-4.81 1c-11.63-1.94-23.51-3.24-33.91-9.43-20-11.9-39.62-24.34-59.79-35.89-13.06-7.49-26.7-14-40.29-20.53-6.66-3.19-13.82-5.36-20.75-8-1.23-.47-2.38-1.18-3.64-1.57-8.81-2.81-17.81-5.14-26.41-8.5-5-1.94-8.15-1-11.45 3L73.4 115.5l-.58.64-24.35-15.54-1 1.5c3.72 8.11 10.39 13.37 17.88 17.84a456.12 456.12 0 0074.26 36.15c4.22 1.57 8.13 4 12.23 6-1.7-.28-3.55-.24-5.09-.9-15.66-6.77-31.06-14.25-47-20.35S69.39 125.81 56 115.44c-4.39-3.39-7.9-7.94-11.61-12.14-2.78-3.14-4-6.15.29-9.64 3.23-2.64 2.13-5.42-2.13-6a58.48 58.48 0 00-11.38-.43C24.4 87.65 21 91.68 19.34 98.1c-2.33 9.12 2 15.83 7.28 22.21 18.62 22.54 41.71 39.26 67.94 51.94 29 14 59.33 24.85 89.27 36.58a58.07 58.07 0 0019.85 3.51 8.32 8.32 0 007.11-12.83c-3.36-5.43-7-11.29-11.91-15-10.71-8.15-22.6-14.53-35.85-18-3.93-1-7.63-2.94-11.43-4.45 3.72.77 7.51 1.31 11.16 2.34 21.65 6.09 41.18 15.19 52.21 36.54 2.24 4.34 1.68 7.92-1.31 11.41a39.25 39.25 0 01-3.17 2.89c12.41-1.34 17.41-15.66 10.42-25.62 9.78 4.72 11.29 13.49 9.6 23 4.77 0 9.34.77 13.55-.14 15.4-3.29 31-6 44.05-16.1 5-3.91 11.1-6.49 16.58-9.88a82.8 82.8 0 007.51-5.61c1.06-.84 2-1.87 3.78-3.62-.28 7.59 3.4 6.51 7.52 5.38 12.32-3.38 24.83-6.13 37-9.94A165.39 165.39 0 00387.16 162c13-6.74 25.39-14.52 38-21.86 2.06-1.2 4-2.57 5.79.63a4.07 4.07 0 003.65 1.27c8-2.29 16.51-3.66 23.62-7.58 15.82-8.74 32.28-14.66 50.24-16.63 9.13-1 15.1-6.29 18.4-14.79 1-2.48 2.28-4.84 3.43-7.26l1.89.35c0 2.75.66 5.73-.13 8.23a148.62 148.62 0 01-6.5 16.14c-1.66 3.66-.42 5.61 3.16 5.88a51.86 51.86 0 009.87-.45c4-.45 8.08-1.21 12.12-1.83l.57 1.9-19.14 9.19c1.31 2.77 2.57 5.45 4.06 8.62h-5.11c-.49 2.24-.27 4.78-1.43 5.88-4.51 4.31-8.9 9.33-14.36 12-13.97 6.64-28.53 12.25-44.29 13.83zm-292.66 94l1.28.19c2.16 2.46 4.35 4.88 6.45 7.39 3.89 4.64 7.11 10.1 11.75 13.78 4.83 3.83 11 5.9 16.6 8.83a71 71 0 0044.36 7.29c7.89-1.13 15.73-2.67 23.54-4.24 12.25-2.45 24.42-5.07 34.74-12.91 2-1.49 5-1.64 7.5-2.37 3.13-.91 6.49-1.34 9.37-2.75 14.22-7 28.25-14.35 42.48-21.31 26.56-13 53.14-25.85 81.51-34.74 12.32-3.86 24.14-9.47 35.9-14.89 17.33-8 34.46-16.43 51.56-24.9a19.68 19.68 0 006.66-5.79q8.76-11.8 16.94-24c7.17-10.68 12.36-22.05 10.69-35.45-.41-3.3-.6-6.62-1-9.92-2.09-17.68-8.91-32.47-24.78-42.22-20.24-12.44-40.13-25.51-60.44-37.83s-42-22.1-65.69-25.45c-15.41-2.18-31.09-2.77-46.67-3.36-7.93-.3-16.25-.21-23.76 1.91-6.48 1.83-12.29 1.48-18.48.44-31-5.2-61.93-5.15-92.32 3.73-19.6 5.73-38.84 12.66-58.41 18.5-30.07 9-60.07 18.08-91.72 20.61-24.67 2-46.95 11.64-67.06 26-2.7 1.94-4.7 4.87-7.64 7.94 1.69.08 2.24.27 2.6.09 14.64-7.32 28-2.26 41.45 3.92 10.38 4.78 20.63 10.53 31.58 13.28 24.9 6.24 46.58 18 67 33.19 10.21 7.59 21 14.84 32.54 20 13.85 6.24 28.67 10.4 43.24 14.89 3.77 1.16 8.3.79 12.28 0a105.83 105.83 0 0017.25-4.87c17.88-6.65 35.67-13.55 53.46-20.47 4.15-1.61 8.15-3.61 12.18-5.51 16.29-7.7 31.26-18.31 49.47-21.75a77.94 77.94 0 0017.2-4.93c25.62-11.39 52.29-19.58 79.51-25.9 17.25-4 33.73-11.37 52-11.29 7.64 0 14.47 1.55 20.73 5.68 25.42 16.77 27.34 40.17 15 68.16-5.3 12-16.51 21.4-25.18 31.86a17.66 17.66 0 01-5.26 3.73c-8.72 4.75-17.48 9.4-26.26 14a26 26 0 01-4.17 1.65c-10.56 3.36-21.21 6.46-31.69 10.09-20.85 7.24-41.15 16.67-62.51 21.64-23.23 5.54-45.33 13.54-67.53 21.24-20.36 7-39.82 16.64-59.77 24.88-6.56 2.72-12.78 6.43-20.18 7.1-2 .18-3.72 2.56-5.57 3.93 0 .77.05 1.54.08 2.31-5-3.39-10.11-6.65-15-10.2s-9.67-7.48-14.23-11l-6 2.74c1.27-5 1-8.53 5.11-11.66 2.57-2 2.19-7.74 3.25-11.78.14-.56.84-1 1.39-1.4q19.44-13 38.93-25.87a6.58 6.58 0 012.86-.55c2.56-.24 5.32.15 7.64-.71 7-2.59 13.62-6.18 20.7-8.41 15.77-5 29.49-14.63 46.42-17.49 20-3.39 39.53-10 59.23-15.3 17.39-4.7 34.26-11 52.45-13.12 13.41-1.58 26.53-6 39.63-9.74 4.64-1.31 9-4 13.21-6.4 5-2.88 6.26-7.57 4.73-12.89-1.64-5.69-5.69-9-11.54-9.5-4.11-.33-8.5-.6-12.4.43-11 2.93-21.91 6.42-32.78 9.91a465 465 0 00-78.46 32.91c-12.76 6.85-26.8 11.71-40.74 15.91-29.43 8.86-58.78 17.48-86.78 30.66-24.27 11.42-50.25 13.17-75.68 3.58-22.67-8.54-45.26-17.64-66.86-28.52s-42.08-24.12-62.85-36.63c-7.67-4.62-14.72-10.24-22.22-15.15a10 10 0 00-6.24-1.74c-9 1.37-14.91 7-18 15.26C.8 171 5.58 191.83 24.53 201.74c11.71 6.13 24.36 10.49 36.64 15.52 2.13.87 5 2.22 6.66 1.5 4.87-2 8.76-.74 12.43 2.43 1.15-2 2-3.54 4-7 3.23 4 5.52 7.53 8.46 10.37 13.4 12.9 26.24 26.55 44 33.88 12 4.94 23.84 10.09 35.82 15 2.96 1.18 6.04 1.38 5.84-3.96zM196 217.38l.42-1.21-49.1-16.86-.47 1.38c16.2 5.99 31.15 15.85 49.15 16.69zm138.31-30.57a51.72 51.72 0 00-32.8 10.59zm-101.58 34.43c8.07 1.34 21.27-2.43 25.58-6.94zM528 108.56l-11.31 14c5.14.82 9.21-4.16 11.31-14zm-494.65 23c2.54 7.83 8.92 14.5 15 16zm460.47-7c-.2-.55-.41-1.09-.61-1.64l-13.21 4.3c.11.36.22.72.34 1.08z"/><path d="M178.38 269.48c.2 5.34-2.88 5.14-5.91 3.9-12-4.89-23.86-10-35.82-15-17.72-7.33-30.56-21-44-33.88-2.94-2.84-5.23-6.37-8.46-10.37-2 3.5-2.82 5-4 7-3.67-3.17-7.56-4.47-12.43-2.43-1.71.72-4.53-.63-6.66-1.5-12.28-5-24.93-9.39-36.64-15.52C5.58 191.83.8 171 6.94 154.3c3.07-8.31 9-13.89 18-15.26a10 10 0 016.25 1.67c7.5 4.91 14.55 10.53 22.22 15.15 20.77 12.51 41.23 25.75 62.85 36.63s44.19 20 66.86 28.52c25.43 9.59 51.41 7.84 75.68-3.58 28-13.18 57.35-21.8 86.78-30.66 13.94-4.2 28-9.06 40.74-15.91A465 465 0 01464.76 138c10.87-3.49 21.75-7 32.78-9.91 3.9-1 8.29-.76 12.4-.43 5.85.47 9.9 3.81 11.54 9.5 1.53 5.32.25 10-4.73 12.89-4.23 2.45-8.57 5.09-13.21 6.4-13.1 3.7-26.22 8.16-39.63 9.74-18.19 2.14-35.06 8.42-52.45 13.12-19.7 5.32-39.19 11.91-59.23 15.3-16.93 2.86-30.65 12.51-46.42 17.49-7.08 2.23-13.72 5.82-20.7 8.41-2.32.86-5.08.47-7.64.71a6.58 6.58 0 00-2.86.55q-19.51 12.87-38.93 25.87c-.55.37-1.25.84-1.39 1.4-1.06 4-.68 9.82-3.25 11.78-4.11 3.13-3.84 6.65-5.11 11.66l6-2.74c4.56 3.55 9.29 7.44 14.23 11s10 6.81 15 10.2c0-.77-.06-1.54-.08-2.31 1.85-1.37 3.61-3.75 5.57-3.93 7.4-.67 13.62-4.38 20.18-7.1 19.95-8.24 39.41-17.84 59.77-24.88C368.79 245 390.89 237 414 231.61c21.36-5 41.66-14.4 62.51-21.64 10.48-3.63 21.13-6.73 31.69-10.09a26 26 0 004.17-1.65c8.78-4.64 17.54-9.29 26.26-14a17.66 17.66 0 005.26-3.73c8.67-10.46 19.88-19.86 25.18-31.86 12.38-28 10.46-51.39-15-68.16-6.26-4.13-13.09-5.64-20.73-5.68-18.23-.08-34.71 7.28-52 11.29-27.22 6.32-53.89 14.51-79.51 25.9a77.94 77.94 0 01-17.2 4.93c-18.21 3.44-33.18 14.05-49.47 21.75-4 1.9-8 3.9-12.18 5.51-17.79 6.92-35.58 13.82-53.46 20.47a105.83 105.83 0 01-17.25 4.87c-4 .74-8.51 1.11-12.28 0-14.57-4.49-29.39-8.65-43.24-14.89-11.52-5.2-22.33-12.45-32.54-20-20.38-15.15-42.06-26.95-67-33.19-11-2.75-21.2-8.5-31.58-13.28-13.31-6.31-26.69-11.37-41.33-4.05-.36.18-.91 0-2.6-.09 2.94-3.09 4.94-6 7.64-7.92C49.45 61.7 71.73 52 96.4 50.06c31.65-2.53 61.65-11.64 91.72-20.61 19.57-5.84 38.81-12.77 58.41-18.5 30.39-8.88 61.29-8.95 92.32-3.73 6.19 1 12 1.39 18.48-.44 7.51-2.12 15.83-2.21 23.76-1.91 15.58.59 31.26 1.18 46.67 3.36 23.73 3.35 45.36 13.07 65.69 25.45s40.2 25.39 60.45 37.84c15.87 9.75 22.69 24.54 24.78 42.22.39 3.3.58 6.62 1 9.92 1.67 13.4-3.52 24.77-10.69 35.45q-8.18 12.21-16.94 24a19.68 19.68 0 01-6.66 5.79c-17.1 8.47-34.23 16.91-51.56 24.9-11.76 5.42-23.58 11-35.9 14.89-28.37 8.89-54.95 21.74-81.51 34.74-14.23 7-28.26 14.33-42.48 21.31-2.88 1.41-6.24 1.84-9.37 2.75-2.54.73-5.54.88-7.5 2.37-10.32 7.84-22.49 10.46-34.74 12.91-7.81 1.57-15.65 3.11-23.54 4.24a71 71 0 01-44.32-7.37c-5.56-2.93-11.77-5-16.6-8.83-4.64-3.68-7.86-9.14-11.75-13.78-2.1-2.51-4.29-4.93-6.45-7.39z" class="cls-1"/><path d="M151.75 162.08c-4.06-2-8-4.42-12.19-6a456.12 456.12 0 01-74.26-36.14c-7.49-4.47-14.16-9.73-17.88-17.84l1-1.5 24.34 15.51.58-.64L54.17 99c3.3-3.93 6.49-4.92 11.45-3 8.6 3.36 17.6 5.69 26.41 8.5 1.26.39 2.41 1.1 3.64 1.57 6.93 2.66 14.09 4.83 20.75 8 13.59 6.51 27.23 13 40.29 20.53 20.17 11.55 39.82 24 59.79 35.89 10.4 6.19 22.28 7.49 33.91 9.43a9.6 9.6 0 004.81-1q37.1-15.27 74.15-30.64c9.33-3.85 18.72-7.54 28-11.4a81.12 81.12 0 009.41-4.49c24.37-14 51.1-22.45 77.33-31.85a393.86 393.86 0 0157.5-16.11c13.17-2.56 27.19-2 40.72-1.19 13.81.87 22.19 10.56 26.17 22.89 5.29 16.35 5.28 33-4.69 47.91-4.17 6.25-9.71 11.7-15.14 17-4.5 4.38-9.72 8-14.68 11.92a17.84 17.84 0 01-3.82 2.29c-9.11 3.94-18.39 7.51-27.33 11.78-23.17 11-47.45 19.11-72 26.35-8.62 2.55-18 2.46-27.56 3.64.36-2.74.6-4.54.9-6.76-.94.44-1.48.53-1.76.85-10.21 11.39-23.85 17.21-37.48 23a34 34 0 01-3.78 1.06c-4.24 1.25-8.57 2.27-12.69 3.84-24 9.16-48 18.52-72.05 27.64-3.23 1.22-6.86 1.33-10.21 2.29-8.1 2.35-15 0-21.44-4.88-5.5-4.16-6.6-7.53-5.23-14.27 2.23-11 9.79-18 18.22-24 5.59-4 12-6.93 18.44-9.55 12.8-5.24 25.8-9.8 38.66-14.83a407.42 407.42 0 0154.74-16.63c21.61-5.15 42.6-12.85 64.09-18.59 22.94-6.12 46.18-11.14 69.21-16.94 4.4-1.11 8.47-3.54 12.64-5.5a71.56 71.56 0 017.37-3.43 45.26 45.26 0 01-23.33 16c-8.72 2.6-17.43 5.29-26.12 8a12.62 12.62 0 00-2.33 1.32 29.32 29.32 0 00-5.34.67c-9.36 2.89-18.59 6.22-28 8.83-17.74 4.89-35.66 9.16-53.39 14.13-17.57 4.93-35.25 9.65-51.49 18.4-3.61 1.95-7.52 3.35-11.53 5.11l-1.43-3.3c-6.27 4.31-12 9-18.32 12.38s-13.07 5.62-19.76 8c-7.29 2.63-14.71 4.9-22.07 7.33-1.14.37-2.27.76-4 1.35l3.86 3.61-2.36 6.6c4.71-1.72 8-4.24 11.63-6.12 19.05-9.93 38.05-20 57.33-29.41 9.95-4.88 20.18-9.51 30.75-12.73 25.7-7.84 51.75-14.54 77.51-22.21 12.37-3.68 24.4-8.49 36.58-12.79 15.72-1.58 30.28-7.19 44.3-13.91 5.46-2.62 9.85-7.64 14.36-12 1.16-1.1.94-3.64 1.43-5.88h5.11c-1.49-3.17-2.75-5.85-4.06-8.62l19.08-9.08-.57-1.9c-4 .62-8.07 1.38-12.12 1.83a51.86 51.86 0 01-9.87.45c-3.58-.27-4.82-2.22-3.16-5.88a148.62 148.62 0 006.5-16.14c.79-2.5.13-5.48.13-8.23l-1.89-.35c-1.15 2.42-2.46 4.78-3.43 7.26-3.3 8.5-9.27 13.79-18.4 14.79-18 2-34.42 7.89-50.24 16.63-7.11 3.92-15.66 5.29-23.62 7.58a4.07 4.07 0 01-3.65-1.27c-1.81-3.2-3.73-1.83-5.79-.63-12.66 7.34-25.08 15.12-38 21.86a165.39 165.39 0 01-26.65 10.71c-12.18 3.81-24.69 6.56-37 9.94-4.12 1.13-7.8 2.21-7.52-5.38-1.81 1.75-2.72 2.78-3.78 3.62a82.8 82.8 0 01-7.51 5.61c-5.48 3.39-11.54 6-16.58 9.88-13 10.11-28.65 12.81-44.05 16.1-4.21.91-8.78.14-13.55.14 1.69-9.53.18-18.3-9.6-23 7 10 2 24.28-10.42 25.62a39.25 39.25 0 003.17-2.89c3-3.49 3.55-7.07 1.31-11.41-11-21.35-30.56-30.45-52.21-36.54-3.65-1-7.44-1.57-11.16-2.34zm-41-26.52c1.21 4.64 5.1 6.47 9.32 7.76q32.33 9.93 64.73 19.68c.15.05.42-.3 1.47-1.12-4.18-2-7.68-4.3-11.51-5.48-12.66-3.91-25.53-7.15-38.15-11.17-8.74-2.74-17.2-6.38-25.89-9.67z" class="cls-1"/><path d="M151.6 162c3.8 1.51 7.5 3.42 11.43 4.45 13.25 3.47 25.14 9.85 35.85 18 5 3.76 8.55 9.62 11.91 15a8.32 8.32 0 01-7.11 12.83 58.07 58.07 0 01-19.85-3.51c-29.94-11.73-60.26-22.55-89.27-36.58-26.23-12.68-49.32-29.4-67.94-51.94-5.27-6.38-9.61-13.09-7.28-22.21 1.66-6.36 5.06-10.39 11.78-10.8a58.48 58.48 0 0111.38.43c4.26.57 5.36 3.35 2.13 6-4.25 3.49-3.07 6.5-.29 9.64 3.71 4.2 7.22 8.75 11.61 12.14 13.44 10.37 27.71 19.27 43.77 25.42s31.32 13.58 47 20.35c1.54.66 3.39.62 5.07.89zM196 217.38c-18-.84-32.91-10.7-49.15-16.69l.47-1.38 49.1 16.86zM334.27 186.81l-32.8 10.59a51.72 51.72 0 0132.8-10.59zM232.73 221.24l25.58-6.94c-4.31 4.51-17.51 8.28-25.58 6.94zM528 108.56c-2.11 9.84-6.18 14.82-11.31 14zM33.36 131.54l15 16c-6.08-1.54-12.46-8.17-15-16zM493.83 124.52l-13.46 3.78c-.12-.36-.23-.72-.34-1.08l13.19-4.34c.2.55.41 1.12.61 1.64z" class="cls-1"/><path d="M471 175.52c-12.18 4.3-24.21 9.11-36.58 12.79-25.72 7.69-51.77 14.37-77.42 22.21-10.57 3.22-20.8 7.85-30.75 12.73-19.28 9.45-38.28 19.48-57.33 29.41-3.62 1.88-6.92 4.4-11.63 6.12l2.36-6.6-3.86-3.61c1.77-.59 2.9-1 4-1.35 7.36-2.43 14.78-4.7 22.07-7.33 6.69-2.43 13.53-4.7 19.76-8s12.05-8.07 18.32-12.38l1.43 3.3c4-1.76 7.92-3.16 11.53-5.11 16.24-8.75 33.92-13.47 51.49-18.4 17.73-5 35.65-9.24 53.39-14.13 9.43-2.61 18.66-5.94 28-8.83a29.32 29.32 0 015.34-.67.81.81 0 00-.12-.15zM110.72 135.56c8.69 3.29 17.15 6.93 25.89 9.71 12.62 4 25.49 7.26 38.15 11.17 3.83 1.18 7.33 3.45 11.51 5.48-1.05.82-1.32 1.17-1.47 1.12q-32.4-9.81-64.76-19.72c-4.22-1.32-8.11-3.12-9.32-7.76z"/></g></g></svg>