<svg xmlns="http://www.w3.org/2000/svg" viewBox="0 0 708.41 498.76"><defs/><defs><style>.cls-1{fill:#fff;stroke:#231f20;stroke-miterlimit:10;stroke-width:10px}</style></defs><g id="Layer_2" data-name="Layer 2"><g id="Layer_1-2" data-name="Layer 1"><g id="_7s5ZaH.tif" data-name="7s5ZaH.tif"><path d="M524.93 336.8c-12-2.7-23.52-4.65-34.65-7.88C420 308.54 370.59 242.06 371 169c.37-72.91 49.4-137.8 120.22-157.4 94.46-26.2 191.04 30.25 209.05 131.9 5 28.3 3.29 56.67-.15 84.95-4.94 40.71-16.73 79.35-37.43 114.86-45 77.27-110.27 127.46-198.58 146.11-8.28 1.75-16.68 3-25.09 4-4.91.57-9.94.1-15.46-.47 48.73-42.38 84.05-93.23 101.37-156.15zM57.49 492.25c49-41.94 84.28-92.74 101.56-155.87L140.6 333C70.54 319.91 15.69 262 6.38 191.2c-9-68.75 26.88-136.59 88.9-168 78-39.42 171.87-13 217.29 61.54 17.22 28.26 24.43 59.31 24.56 92.32.18 45-5.56 89.15-23.38 130.69C272.5 404 202 466.3 98.64 489.32c-8.74 1.95-17.68 3.1-26.58 4.17-4.56.54-9.24.09-13.86.09z" class="cls-1"/></g></g></g></svg>