<svg xmlns="http://www.w3.org/2000/svg" viewBox="0 0 682.85 533.77"><defs/><defs><style>.cls-1{fill:#fff}</style></defs><g id="Layer_2" data-name="Layer 2"><g id="Layer_1-2" data-name="Layer 1"><path d="M588.37 483.35h26.75c20.4 0 40.8-.06 61.19.1 2.22 0 5.84.79 6.3 2.09.7 2-.25 5.06-1.41 7.17-7.68 14-19.63 20.62-35.65 20.16a189.43 189.43 0 00-23.23.23c-3.09.29-7.16 2.42-8.68 5-6.37 10.73-15.49 15.72-27.75 15.7q-39.46-.07-78.94 0c-12 0-21.35-4.74-27.07-15.53-2.08-3.94-5-5.51-9.34-5.44-8.57.13-17.13 0-25.7 0-16.3 0-27.12-8.58-34.46-22.34-2.38-4.46-.49-7 5.24-7.06 20-.1 40-.05 60-.06h27.93c-2.8-1.84-4-2.69-5.28-3.45-31.54-18.92-48.27-46.48-48.95-83.41-.2-10.81-.1-21.62 0-32.43.1-12.33 8-21.18 20.24-22.79a55.71 55.71 0 017.31-.44c45.28 0 90.56 0 135.85-.06 9.7 0 18.12 2.1 23.89 10.75 1 1.53 3.16 2.45 4.95 3.28 21.77 10.12 33.81 32.09 30.3 55.44-3.4 22.66-21.48 40-45.31 43.09-4.12.54-6.73 2.44-9.7 5.23-9.14 8.56-18.85 16.49-28.48 24.77zm-1.14-105.5c0-8.54.18-16.86-.2-25.16-.06-1.21-2.8-3.28-4.31-3.29-36.52-.18-73-.27-109.54 0-9.89.07-15.29 6.18-15.37 16-.08 10.81-.1 21.62 0 32.43.4 41.54 30.25 76.36 72.18 84.29 39.44 7.46 80.59-15.86 95.5-53.86 8.49-21.64 6-44.18 5.74-66.49-.06-5.26-3.7-10.32-9.1-11.1-9.29-1.35-18.79-1.28-28.11-1.8v29.43c2.41 0 4.25.16 6.06 0 4.13-.44 5.75 1.32 6.18 5.44.94 8.9 2.27 17.76 3.6 26.61.66 4.41-.58 6.37-5.43 6.23-9.57-.28-19.17-.24-28.75 0-4.48.11-5.83-1.74-5.25-5.87.94-6.64 1.87-13.29 2.65-20 1.37-11.71 1.32-11.71 14.15-12.86zM421.68 492.17c4.81 6.53 9.95 10.61 16.69 11.14 10.34.82 20.74 1.06 31.11.9 8.46-.14 14.46 2.83 18.3 10.51 3.27 6.55 9.05 10.27 16.2 10.34q42.51.39 85 0c8.36-.07 14.56-5.25 16-12.25H578.71c-3.46 0-7.83.4-7.8-4.48 0-4.55 4.22-4 7.47-4h3.67c21 0 42 .06 63 0a47.36 47.36 0 0010.95-1.15 22.54 22.54 0 0015-11zm219.06-127.61c-.66 6.43-.66 6.43 3.57 10.2 20 17.84 15.55 48.93-8.53 60.75-3.27 1.6-5.76 4.79-8.61 7.24 16.6.68 32.09-14.24 35.84-32.34s-5.84-38.35-22.27-45.85zM603.6 410c-1-7.83-1.76-15.25-3-22.6-.2-1.18-2.29-2.83-3.59-2.91-5.42-.33-10.87-.14-16.77-.14-1.2 8.81-2.33 17.1-3.49 25.65zm33.84 13.8c12.47-6.84 14.94-30.82 3.71-38.92-1.22 12.85-2.46 25.86-3.71 38.96zM549 240.75c-1.39 1.84-2.42 3.29-3.54 4.66-9.12 11.13-9.33 21.56.79 31.6 15.51 15.39 9.65 36-.52 50.07-1 1.33-4.1 1.07-6.23 1.55-.18-2.15-1.08-4.57-.41-6.39 1.33-3.59 3.85-6.72 5.33-10.26 4.55-10.89 3.74-20.62-5-29.74-12.71-13.21-12.23-31.37.45-43.12a8.89 8.89 0 015.78-1.88c1.05.01 2.07 2.06 3.35 3.51zM610 305.73c-2.79 6.34-5 12.17-8 17.58-.69 1.24-4 1-6.11 1.49-.29-2-1.13-4.07-.73-5.9.46-2.1 2.17-3.89 3.06-5.93 2.5-5.73 2-10.78-2.49-15.73-7.78-8.64-8.08-19.28-.86-27 1.51-1.61 4.7-1.64 7.11-2.39-.11 2.46.65 5.44-.48 7.27-4.38 7.1-4.12 10.39 1 17.07 2.95 3.9 4.82 8.6 7.5 13.54zM494.87 325.59c-4 .26-6-2.86-4.56-6.22 1-2.23 2.41-4.25 3.39-6.47 2.52-5.71 2-10.74-2.43-15.69-8.2-9.14-8.37-19.25-.56-27.3 1.45-1.49 4.69-1.24 7.11-1.79-.14 2.29.54 5.1-.54 6.78-4.83 7.45-4.85 10.49 1 17.29 7.66 8.89 7.23 23.67-1 31.72a13.13 13.13 0 01-2.41 1.68z"/><path d="M587.23 377.85c-12.83 1.15-12.78 1.15-14.15 12.86-.78 6.67-1.71 13.32-2.65 20-.58 4.13.77 6 5.25 5.87 9.58-.23 19.18-.27 28.75 0 4.85.14 6.09-1.82 5.43-6.23-1.33-8.85-2.66-17.71-3.6-26.61-.43-4.12-2-5.88-6.18-5.44-1.81.19-3.65 0-6.06 0v-29.44c9.32.52 18.82.45 28.11 1.8 5.4.78 9 5.84 9.1 11.1.23 22.31 2.75 44.85-5.74 66.49-14.91 38-56.06 61.32-95.5 53.86-41.93-7.93-71.78-42.75-72.18-84.29-.1-10.81-.08-21.62 0-32.43.08-9.83 5.48-15.94 15.37-16 36.51-.25 73-.16 109.54 0 1.51 0 4.25 2.08 4.31 3.29.38 8.32.2 16.63.2 25.17zM473.76 409.1c-4.51-.15-6.25 2.68-4.76 7.21 7.81 23.58 22.58 41.57 44.23 53.74 1.52.85 4.24-.43 6.4-.72-.75-2.2-.83-5.51-2.35-6.41-19.71-11.73-33.28-28.25-40.5-50-.54-1.69-2.3-2.92-3.02-3.82zM421.68 492.17H671a22.54 22.54 0 01-15 11 47.36 47.36 0 01-10.91 1.08c-21 .1-42 0-63 0h-3.67c-3.25 0-7.44-.51-7.47 4 0 4.88 4.34 4.46 7.8 4.48H605c-1.48 7-7.68 12.18-16 12.25q-42.51.36-85 0c-7.15-.07-12.93-3.79-16.2-10.34-3.84-7.68-9.84-10.65-18.3-10.51-10.37.16-20.77-.08-31.11-.9-6.76-.45-11.9-4.53-16.71-11.06zM640.74 364.56c16.43 7.5 26 27.65 22.27 45.85s-19.24 33-35.84 32.34c2.85-2.45 5.34-5.64 8.61-7.24 24.08-11.82 28.55-42.91 8.53-60.75-4.23-3.76-4.23-3.76-3.57-10.2z" class="cls-1"/><path d="M603.6 410h-26.82c1.16-8.55 2.29-16.84 3.49-25.65 5.9 0 11.35-.19 16.77.14 1.3.08 3.39 1.73 3.59 2.91 1.21 7.39 1.99 14.81 2.97 22.6zM637.44 423.84c1.25-13.1 2.49-26.11 3.71-38.92 11.23 8.08 8.76 32.08-3.71 38.92z" class="cls-1"/><path d="M473.76 409.1c.72.88 2.48 2.13 3 3.78 7.22 21.79 20.79 38.31 40.5 50 1.52.9 1.6 4.21 2.35 6.41-2.16.29-4.88 1.57-6.4.72-21.65-12.17-36.42-30.16-44.23-53.74-1.47-4.49.27-7.27 4.78-7.17zM134.91 20.19c-1.4-4.24 1.1-6 4.39-6.56 10.94-1.85 21.92-3.47 32.89-5.11a4.33 4.33 0 012.93.34c7.53 5.73 15.27 1.46 22.74.26 30.38-4.86 60.87-8.45 91.64-9 19-.37 20.16.21 27.29 17.93a142.61 142.61 0 017.33 25.7c1.53 7.75.33 8.87-7.09 12.4 3.51 13.37 7.34 26.74 10.51 40.27 6.89 29.37 14.6 58.63 19.78 88.32 3.95 22.67 5.69 45.9 6.36 68.95q2.63 90.27 3.26 180.6c.19 26.24-1.88 52.5-2.73 78.76-.15 4.63-1.85 7-6.33 8.59-20.67 7.37-42 12.13-63.8 12.17-47 .09-94.07-1-141.11-1.57-11.3-.15-22.61-.51-33.92-.47-21.51.06-42.43-4.25-63.39-8.32-7.66-1.49-15.37-2.73-22.95-4.51-9.43-2.27-14.08-7.23-14.87-16.94-2.16-26.51-4.76-53-5.59-79.59C.82 377-.6 331.54.27 286.17 1 248.83 3.84 211.42 8 174.29 11.43 143 18.09 112.08 23.26 81a21.73 21.73 0 00-.09-5.86c-1.1-10.14-2.31-20.33-3.39-30.49a24 24 0 01.13-5.48c.89-7.11 2.64-8.52 9.77-8.52 33.16 0 65.95-3.84 98.59-9.29 2.11-.36 4.21-.74 6.64-1.17zm-16.5 208.25c58.71.57 116.68-2.2 174.9-7.43-5.87-55.34-18-108.73-33.78-161.81l-64.14 6.23c1.43 8.73 2.83 16.41 3.87 24.13.25 1.88-.69 3.91-1.08 5.87a46.77 46.77 0 01-4.43-3.35c-2-1.87-3.77-4-5.2-5.48-1.27 2.53-2.36 4.72-3.46 6.9l-6.35-4.28-2.64 12.4-1.61.27c-2.45-3-4.89-5.92-7.49-9a22.46 22.46 0 01-1.36 3.56 42.87 42.87 0 01-2.74 3.72c-1.09-1.12-2.66-2.06-3.18-3.4a55.89 55.89 0 01-2.28-8.63c-1.3-6.27-2.49-12.57-3.69-18.71l-67.84 3.42c15.39 50.97 25.81 102.61 32.5 155.59zM296.57 369.3c-56.1 8.67-111.75 12.44-167.3 8.68-1 50-2 99-2.94 148.28a33.52 33.52 0 003.61.41q72.57 1.14 145.13 2.21a23.15 23.15 0 006.93-.53 5 5 0 003-3.33q2.31-22.81 4.15-45.67c2-24.53 3.9-49.06 5.63-73.6.86-11.9 1.22-23.84 1.79-36.45zm-7 158.68c20.28-1.61 39.46-5.07 57.84-12.17 1.21-.47 2.39-2.72 2.45-4.18 1.1-26.92 2.59-53.84 2.9-80.77q1.14-98.58-4.88-197c-1.13-19-2.63-38.26-6.61-56.83-8.45-39.39-18.66-78.4-28.05-117.59-.65-2.71-1.67-4-4.64-3.75-14.56 1-29.12 1.93-44.11 2.9.57 2.21.92 3.8 1.38 5.36 16.08 54.21 28.56 109.16 32.92 165.67 1.68 21.71 2.73 43.49 3.27 65.26 1.11 44.43-1 88.79-4.07 133.11-1.29 18.56-3.08 37.08-4.65 55.62-1.19 14.55-2.42 29.09-3.71 44.39zM26.8 87.56a22.51 22.51 0 00-1 2.78A907.6 907.6 0 008.93 202a1167 1167 0 00-4.78 131.56c1 42.38 3 84.73 4.83 127.09.54 12.77 1.78 25.52 2.78 38.27.76 9.73 3.69 13.29 13.19 15.26 8.92 1.85 17.94 3.23 26.91 4.88 9.25 1.69 18.49 3.46 26.63 5-.9-14.64-2.45-29-2.56-43.32-.4-52.21-1.63-104.39-6.21-156.43-2.21-25-4.28-50-7.39-74.87-4-32.27-8.94-64.44-13.67-96.62-3.38-22.95-9.59-45.01-21.86-65.26zm4.63-19c-3.46 8.57-2.88 9.66 1.75 20.53 5.32 12.46 11.62 24.94 14.2 38.06 6.48 32.88 11.54 66 16.37 99.22 7.78 53.5 12.19 107.34 14.49 161.33 1.34 31.25 1.35 62.54 2.35 93.8.37 11.59 1.57 23.19 3 34.71.76 6.12 4.15 9.07 10.35 9.61 7.76.67 15.58.57 23.37.91 3.22.14 3.84-1.71 4-4.35.32-8.31 1-16.61 1.06-24.92.23-51.06.92-102.13.28-153.18-.58-45.91-5.26-91.56-11.88-137A962.13 962.13 0 0082.43 77.05c-1.07-3.67-2.74-4.5-6.25-4.41-14.95.36-29.93.75-44.75-4.05zm163.64-8.14c1.31 0 2.8.12 4.26 0 23.81-2.23 47.61-4.57 71.42-6.72 14.21-1.28 28.45-2.19 42.65-3.48 5.48-.5 7.77-3.44 6.22-9.1-2.36-8.6-5.48-17-8.53-25.39-2.86-7.86-8.63-10.95-17-10.91-31 .15-61.67 3.41-92.22 8.27-6.47 1-12.91 2.21-19.51 3.35zm-41.87 4.19c-4.57-12.12-9.07-23.48-13.08-35-1.64-4.69-4.2-5.22-8.6-4.45-32.55 5.66-65.25 10-98.38 9.92-1.08 0-2.15.16-3.86.3a35.08 35.08 0 011.86 28.85c7.19 1.25 13.79 3.25 20.42 3.38q26.85.54 53.72-.3c15.57-.45 31.12-1.72 47.92-2.7zm75.46 180.71c-6.57 3.47-9.41 9.93-12.35 16.16-5.19 11-13.06 17.39-25.82 16.15-.18 0-.41.39-.61.61 5.69 10.45 18.65 12.78 29.65 5.77 12.35-7.87 17.47-31.13 9.13-38.69zm-3.36-3.41a15.25 15.25 0 00-3.75-1.53c-15.82-2.7-34.27 13.58-33.92 29.67.07 3.11 1 4.33 4.29 4.44 9.77.34 16.17-4.3 20.82-12.56 3.77-6.7 8.16-13.06 12.56-20.02zm-23 87.39l1.14-.18c-1.36-6.78-2.41-13.65-4.23-20.31-1-3.67-3.91-6.41-8.23-5.77s-5.5 4.28-5.54 7.81c-.09 8.77 0 17.58.65 26.31a45.15 45.15 0 003.6 14.33c1.07 2.41 4.45 3.8 6.78 5.64 1.94-2.65 5.2-5.13 5.57-8 .88-6.5.3-13.2.3-19.83zm-40-5h.23c0 3.5-.44 7.06.1 10.47.92 5.85 1.81 11.84 3.89 17.34s8.47 6.79 12.9 3.37c1.12-.86 1.33-2.92 2-4.43-1.31.15-2.89-.11-3.88.53-3.79 2.44-6.27 1-8.11-2.41a13.46 13.46 0 01-1.85-5.09c-.62-9.91-1.29-19.83-1.35-29.75 0-4.94 2.42-6.25 7.71-5.81 1.08.09 2.23-.58 3.35-.91-.89-1-1.58-2.61-2.7-3-5.37-2-12 2.52-12.22 8.25-.18 3.79-.05 7.62-.05 11.44zm92.52-19.47l-.21-2.2c-2.55 0-5.19-.38-7.6.2-.87.21-1.74 2.73-1.68 4.16q.84 20.4 2.09 40.77c.12 1.88 1.07 5.13 2 5.27 3.12.49 6.92 1.7 9.78-2.9l-7.91-1.21c-.3-6.58-.61-13.32-.88-19.28l4.67-3.35-4.74-2.9c-.32-5.18-.68-10.94-1-16.54zm13.38 2l5.11-3.79c-1.87-.54-3.73-1.51-5.6-1.52-2.93 0-3.77 2-3.62 4.78.77 13.74 1.34 27.49 2.25 41.22.13 1.86 1.51 4.9 2.78 5.18 2.92.64 6.52.89 8.83-3.47l-8.1-.85V328.7l4-3.28-4.73-2.54c-.27-5.31-.61-11.08-.9-16.01zm-34.9 23l5-3.83-5.61-2.49c-.48-5.33-1-11-1.52-16.88a8.12 8.12 0 002.41-.43 25.93 25.93 0 002.7-2.12c-1-.58-2-1.58-3.1-1.67-4.33-.4-6.06 1.48-5.72 5.78 1 13.24 2 26.49 3.12 39.72a44.66 44.66 0 001.41 6.25l2.17-.23c2.61-8.15-1.86-16.46-.84-24.08zm-18.14 1l5.12-4.35-5.57-2.13c-.48-5.45-1-11.2-1.51-17a11.42 11.42 0 002.31-.72c1-.58 1.86-1.32 2.78-2-1.07-.51-2.12-1.39-3.22-1.46-4.81-.3-6.07 1.31-5.56 6.25q1.08 10.41 1.87 20.84c.53 6.8.77 13.61 1.44 20.39.12 1.24 1.64 2.35 2.52 3.52a25.52 25.52 0 001.74-4.08c.23-.9-.21-2-.31-2.95-.56-5.67-1.12-11.43-1.59-16.24zm-188.9-274l2.3-.36c.5-6.19.56-12.3-3.14-17.74l-1.52.22z"/><path d="M118.41 228.44c-6.69-53-17.11-104.62-32.5-155.59l67.84-3.47c1.2 6.14 2.39 12.44 3.69 18.71a55.89 55.89 0 002.28 8.63c.52 1.34 2.09 2.28 3.18 3.4a42.87 42.87 0 002.74-3.72 22.46 22.46 0 001.36-3.56c2.6 3.13 5 6.09 7.49 9l1.61-.27 2.64-12.4 6.35 4.28c1.1-2.18 2.19-4.37 3.46-6.9 1.43 1.53 3.22 3.61 5.2 5.48a46.77 46.77 0 004.43 3.35c.39-2 1.33-4 1.08-5.87-1-7.72-2.44-15.4-3.87-24.13l64.14-6.23c15.81 53.08 27.91 106.47 33.78 161.81-58.22 5.28-116.19 8.04-174.9 7.48zM296.57 369.3c-.6 12.61-.93 24.55-1.77 36.45-1.73 24.54-3.66 49.07-5.63 73.6Q287.34 502.19 285 525a5 5 0 01-3 3.33 23.15 23.15 0 01-6.93.53q-72.56-1.07-145.13-2.21a33.52 33.52 0 01-3.61-.41c1-49.28 1.94-98.28 2.94-148.28 55.55 3.78 111.2.04 167.3-8.66z" class="cls-1"/><path d="M289.61 528c1.29-15.28 2.52-29.82 3.75-44.37 1.57-18.54 3.36-37.06 4.65-55.62 3.07-44.32 5.18-88.68 4.07-133.11-.54-21.77-1.59-43.55-3.27-65.26C294.45 173.11 282 118.16 265.89 64c-.46-1.56-.81-3.15-1.38-5.36 15-1 29.55-1.86 44.11-2.9 3-.21 4 1 4.64 3.75 9.39 39.19 19.6 78.2 28.05 117.59 4 18.57 5.48 37.81 6.61 56.83q5.88 98.4 4.88 197c-.31 26.93-1.8 53.85-2.9 80.77-.06 1.46-1.24 3.71-2.45 4.18-18.38 7.05-37.56 10.51-57.84 12.14zm40.69-77c-1.77-14.42-3.86-32-6.18-49.55-.2-1.48-2-2.76-3-4.13-.45 1.67-1.41 3.39-1.26 5 1.6 18 4.13 35.91 4.83 53.91.47 12-1.72 24.12-2.45 36.2-.12 2.06 1.15 4.21 1.78 6.33.93-1.92 2.47-3.77 2.67-5.76 1.31-12.91 2.25-25.8 3.61-42.06zm14.13 27.82c-.36-2.85-.61-6.32-1.34-9.69-.22-1-1.73-1.78-2.64-2.66-.58 1-1.63 2.1-1.64 3.15q-.09 9.38.3 18.75c.05 1.07 1.07 2.09 1.65 3.13.93-.89 2.49-1.65 2.69-2.68a96.82 96.82 0 00.98-10.06zM26.8 87.56c12.27 20.25 18.48 42.31 21.86 65.25 4.73 32.18 9.64 64.35 13.67 96.62 3.11 24.88 5.18 49.89 7.39 74.87 4.58 52 5.81 104.22 6.21 156.43.11 14.35 1.66 28.68 2.56 43.32-8.14-1.53-17.38-3.3-26.63-5-9-1.65-18-3-26.91-4.88-9.5-2-12.43-5.53-13.19-15.26-1-12.75-2.24-25.5-2.78-38.27-1.8-42.36-3.84-84.71-4.83-127.09A1167 1167 0 018.93 202a907.6 907.6 0 0116.9-111.66 22.51 22.51 0 01.97-2.78zM23 251.7l2.42 2.63c.8-1 2-2 2.35-3.13q8.23-30.7 16.07-61.48c.39-1.53-.44-3.37-.7-5.07-1.2 1.3-3 2.41-3.51 3.94-4.08 13.28-8.11 26.59-11.74 40-1.99 7.34-3.18 14.9-4.89 23.11zm14.09 7.83l.39.08a14.76 14.76 0 00.09 3.94c.26.9 1.31 1.57 2 2.34.73-.73 1.94-1.36 2.11-2.2.84-4.19 1.53-8.43 2-12.68.11-1-.89-2.18-1.39-3.27-1 .73-2.47 1.28-2.78 2.23-1.05 3.11-1.65 6.36-2.42 9.56z" class="cls-1"/><path d="M31.43 68.59c14.82 4.8 29.8 4.43 44.75 4 3.51-.09 5.18.74 6.25 4.41a962.13 962.13 0 0128.28 130.26c6.62 45.44 11.3 91.09 11.88 137 .64 51.05 0 102.12-.28 153.18 0 8.31-.74 16.61-1.06 24.92-.11 2.64-.73 4.49-4 4.35-7.79-.34-15.61-.24-23.37-.91-6.2-.54-9.59-3.49-10.35-9.61-1.42-11.52-2.62-23.12-3-34.71-1-31.26-1-62.55-2.35-93.8-2.3-54-6.71-107.83-14.49-161.33-4.83-33.17-9.89-66.34-16.37-99.22-2.58-13.12-8.88-25.6-14.2-38.06-4.57-10.82-5.12-11.91-1.69-20.48zM195.07 60.45l-12.74-44c6.6-1.14 13-2.32 19.51-3.35 30.55-4.85 61.23-8.1 92.22-8.26 8.4 0 14.17 3.05 17 10.91 3.05 8.39 6.17 16.79 8.53 25.39 1.55 5.66-.74 8.6-6.22 9.1-14.2 1.29-28.44 2.2-42.65 3.48-23.81 2.15-47.61 4.49-71.42 6.72-1.43.13-2.92.01-4.23.01zM153.2 64.61c-16.8 1-32.35 2.25-47.92 2.7q-26.85.8-53.72.3c-6.63-.13-13.23-2.13-20.42-3.38a35.08 35.08 0 00-1.86-28.85c1.71-.14 2.78-.31 3.86-.3 33.13.11 65.83-4.26 98.38-9.92 4.4-.77 7-.24 8.6 4.45 4.01 11.52 8.51 22.88 13.08 35zM228.66 245.32c8.35 7.56 3.22 30.82-9.13 38.69-11 7-24 4.68-29.65-5.77.2-.22.43-.63.61-.61 12.76 1.24 20.63-5.15 25.82-16.15 2.94-6.23 5.78-12.69 12.35-16.16z" class="cls-1"/><path d="M225.3 241.91c-4.4 7-8.79 13.32-12.56 20-4.65 8.26-11.05 12.9-20.82 12.56-3.3-.11-4.22-1.33-4.29-4.44-.35-16.09 18.1-32.37 33.92-29.67a15.25 15.25 0 013.75 1.55zM202.34 329.3c0 6.63.58 13.33-.26 19.85-.37 2.85-3.63 5.33-5.57 8-2.33-1.84-5.71-3.23-6.78-5.64a45.15 45.15 0 01-3.6-14.33c-.7-8.73-.74-17.54-.65-26.31 0-3.53 1.25-7.18 5.54-7.81s7.23 2.1 8.23 5.77c1.82 6.66 2.87 13.53 4.23 20.31zm-6.82 24.25l2.28-.28c.56-3.77 1.43-7.52 1.63-11.31.57-10.45.57-20.96-3.13-30.96-.65-1.76-2.69-3-4.1-4.51-1 1.71-2.81 3.32-3.06 5.14a78.27 78.27 0 003.26 37.22c.6 1.75 2.06 3.15 3.12 4.7zM162.32 324.3c0-3.82-.13-7.65 0-11.47.25-5.73 6.85-10.23 12.22-8.25 1.12.42 1.81 2 2.7 3-1.12.33-2.27 1-3.35.91-5.29-.44-7.74.87-7.71 5.81.06 9.92.73 19.84 1.35 29.75a13.46 13.46 0 001.85 5.09c1.84 3.45 4.32 4.85 8.11 2.41 1-.64 2.57-.38 3.88-.53-.63 1.51-.84 3.57-2 4.43-4.43 3.42-10.86 2-12.9-3.37s-3-11.49-3.89-17.34c-.54-3.41-.1-7-.1-10.47zM254.84 304.83l-5.48 2c.34 5.6.7 11.36 1 16.54l4.74 2.9-4.67 3.35c.27 6 .58 12.7.88 19.28l7.91 1.21c-2.86 4.6-6.66 3.39-9.78 2.9-1-.14-1.9-3.39-2-5.27q-1.26-20.37-2.09-40.77c-.06-1.43.81-3.95 1.68-4.16 2.41-.58 5.05-.2 7.6-.2zM268.22 306.87c.29 4.93.63 10.7.94 16l4.73 2.54-4 3.28v19.72l8.1.85c-2.31 4.36-5.91 4.11-8.83 3.47-1.27-.28-2.65-3.32-2.78-5.18-.91-13.73-1.48-27.48-2.25-41.22-.15-2.78.69-4.8 3.62-4.78 1.87 0 3.73 1 5.6 1.52zM233.32 329.85c-1 7.62 3.45 15.93.81 24.1l-2.17.23a44.66 44.66 0 01-1.41-6.25c-1.11-13.23-2.09-26.48-3.12-39.72-.34-4.3 1.39-6.18 5.72-5.78 1.08.09 2.07 1.09 3.1 1.67a25.93 25.93 0 01-2.7 2.12 8.12 8.12 0 01-2.41.43c.52 5.84 1 11.55 1.52 16.88l5.61 2.49zM215.18 330.9c.47 4.81 1 10.57 1.61 16.33.1 1 .54 2 .31 2.95a25.52 25.52 0 01-1.74 4.08c-.88-1.17-2.4-2.28-2.52-3.52-.67-6.78-.91-13.59-1.44-20.39q-.79-10.43-1.87-20.84c-.51-4.94.75-6.55 5.56-6.25 1.1.07 2.15.95 3.22 1.46-.92.67-1.8 1.41-2.78 2a11.42 11.42 0 01-2.31.72c.52 5.79 1 11.54 1.51 17l5.57 2.13zM26.28 56.94l-2.36-17.88 1.52-.22c3.7 5.44 3.64 11.55 3.14 17.74z" class="cls-1"/><path d="M330.3 450.94c-1.36 16.26-2.34 29.15-3.61 42-.2 2-1.74 3.84-2.67 5.76-.63-2.12-1.9-4.27-1.78-6.33.73-12.08 2.92-24.18 2.45-36.2-.7-18-3.23-35.93-4.83-53.91-.15-1.62.81-3.34 1.26-5 1 1.37 2.8 2.65 3 4.13 2.32 17.55 4.41 35.13 6.18 49.55zM344.43 478.76a96.82 96.82 0 01-1 10c-.2 1-1.76 1.79-2.69 2.68-.58-1-1.6-2.06-1.65-3.13q-.37-9.36-.3-18.75c0-1.05 1.06-2.1 1.64-3.15.91.88 2.42 1.63 2.64 2.66.75 3.37 1 6.84 1.36 9.69zM23 251.7c1.71-8.21 2.9-15.77 4.89-23.11 3.63-13.41 7.66-26.72 11.74-40 .47-1.53 2.31-2.64 3.51-3.94.26 1.7 1.09 3.54.7 5.07Q36 220.5 27.77 251.2c-.31 1.17-1.55 2.09-2.35 3.13zM37.09 259.53c.77-3.2 1.37-6.45 2.4-9.56.31-.95 1.82-1.5 2.78-2.23.5 1.09 1.5 2.24 1.39 3.27-.44 4.25-1.13 8.49-2 12.68-.17.84-1.38 1.47-2.11 2.2-.7-.77-1.75-1.44-2-2.34a14.76 14.76 0 01-.09-3.94zM195.52 353.55c-1.06-1.55-2.53-2.95-3.12-4.66a78.27 78.27 0 01-3.26-37.22c.25-1.82 2-3.43 3.06-5.14 1.41 1.49 3.45 2.75 4.1 4.51 3.7 9.96 3.7 20.47 3.13 30.96-.2 3.79-1.07 7.54-1.63 11.31zM438 144.41c-8.26-24.11-5.24-46.07 12.9-64.23S491 59 515.16 67.42c-.27-2.63-.49-5-.77-7.36q-2.32-19.85-4.65-39.71c-.33-2.88 1.39-5.21 4.45-6.19a16.61 16.61 0 019.55.18c5.93 1.59 11.16 4.62 16.16 8.07 12.94 8.93 24.25 19.71 34.91 31.2 7.65 8.25 14.82 16.88 20.28 26.79a35.94 35.94 0 014.55 13.31 11.06 11.06 0 01-1 6.58c-1.1 2.08-2.79 3.35-5.21 3.11q-9.33-.9-18.65-2c-9-1-18-2.15-27-3.22-.55-.06-1.1-.06-1.76-.1 7.74 23.94 5.49 46-12.88 64.3s-40.28 20.91-64.33 12.88c.1 1.14.17 2.19.29 3.24l5.07 42.75c.5 4.2-1 6.4-5.23 7.23a19.64 19.64 0 01-10.29-.95c-7.95-2.7-14.76-7.35-21.24-12.5a233.73 233.73 0 01-41.56-42.41c-4.61-6.12-8.8-12.51-10.65-20.11a17 17 0 01-.3-8.81c1-3.38 2.95-5 6.4-4.64 7 .68 14 1.52 20.94 2.35 7.84.92 15.67 1.9 23.51 2.85.63.11 1.25.1 2.25.15zm53.9 24.47c24.4.88 48-20.31 47.79-47.76-.16-24.83-19.84-48.2-49.67-47.45-24.51.62-45.55 21.19-45.67 47.59-.16 26.21 21.59 48.23 47.51 47.62zm-96.1-18.78a4.51 4.51 0 000 .87 11.69 11.69 0 00.44 1.3 65.81 65.81 0 0010.21 16.94A249.92 249.92 0 00444.23 207a71 71 0 0016.7 10.33c1.79.76 2.24.41 2-1.48-1.07-8.8-2.1-17.61-3.24-26.4-.8-6.25-1.75-12.48-2.62-18.73a6.08 6.08 0 00-2.76-4.05l-1.66 1.58c-2.85 2.65-5.66 5.35-8.56 7.95a4.4 4.4 0 01-5.42.37 5.11 5.11 0 01-1.33-7.6c2.51-2.84 5.23-5.49 7.86-8.23l1.54-1.66c-1.49-1.73-2.84-3-5.24-3.31-12.22-1.39-24.42-3-36.63-4.51-2.98-.42-5.97-.77-9.11-1.16zM542 86.81l46.62 5.57c-.29-1-.44-1.66-.7-2.3a59.63 59.63 0 00-8-14 261 261 0 00-40.43-40.95A64.2 64.2 0 00522.86 25c-.58-.24-1.19-.42-2.08-.73 1.63 13.49 3.22 26.61 4.87 40.17.93-.75 1.46-1.12 1.93-1.55 2-1.83 3.92-3.77 6-5.49a5 5 0 017.28.43c1.86 2 1.81 4.81-.26 7.05-2.53 2.76-5.15 5.43-7.73 8.14l-3.37 3.47 3.94 3.35 2.19-2.08c1.31-1.23 2.57-2.53 3.94-3.67a4.9 4.9 0 016.57.24 4.73 4.73 0 01.77 6.51c-1 1.37-2.19 2.57-3.28 3.86-.5.59-.98 1.23-1.63 2.11z"/><path d="M491.86 168.88c-25.92.61-47.67-21.41-47.55-47.62.12-26.4 21.16-47 45.67-47.59 29.83-.75 49.51 22.62 49.67 47.45.17 27.45-23.39 48.64-47.79 47.76zm41.61-47.82L533 121a38.32 38.32 0 00-8-24.35 40.46 40.46 0 00-21.34-14.81 4.43 4.43 0 00-5.72 2.82c-1.11 2.69-.41 5.11 2 6.48 1.6.9 3.3 1.64 5 2.41a30.79 30.79 0 0117.33 32.36c-.41 2.57-1.25 5.07-1.77 7.63a5.1 5.1 0 009.25 3.83 11.21 11.21 0 001.65-3.77c.8-4.16 1.39-8.36 2.07-12.54zm-10.62 25.37a8.26 8.26 0 00-.65-1.83c-2.19-3.39-5.29-3.88-8.5-1.48-2.34 1.75-4.74 3.4-7.1 5.11a20.21 20.21 0 00-2.41 1.91 4.63 4.63 0 00-.64 6.39 4.85 4.85 0 006.28 1.94 36.36 36.36 0 0010.68-7.39 7.25 7.25 0 002.34-4.65zM395.76 150.1c3.14.39 6.13.74 9.12 1.12 12.21 1.52 24.41 3.12 36.63 4.51 2.4.27 3.75 1.58 5.24 3.31l-1.54 1.66c-2.63 2.74-5.35 5.39-7.86 8.23a5.11 5.11 0 001.33 7.6 4.4 4.4 0 005.42-.37c2.9-2.6 5.71-5.3 8.56-7.95l1.66-1.58a6.08 6.08 0 012.76 4.05c.87 6.25 1.82 12.48 2.62 18.73 1.14 8.79 2.17 17.6 3.24 26.4.23 1.89-.22 2.24-2 1.48A71 71 0 01444.23 207a249.92 249.92 0 01-37.81-37.75 65.81 65.81 0 01-10.21-16.94 11.69 11.69 0 01-.44-1.3 4.51 4.51 0 01-.01-.91zM542 86.81c.69-.88 1.17-1.52 1.69-2.12 1.09-1.29 2.3-2.49 3.28-3.86a4.73 4.73 0 00-.77-6.51 4.9 4.9 0 00-6.57-.24c-1.37 1.14-2.63 2.44-3.94 3.67l-2.19 2.08-3.94-3.35 3.33-3.48c2.58-2.71 5.2-5.38 7.73-8.14 2.07-2.24 2.12-5 .26-7.05a5 5 0 00-7.28-.43c-2.1 1.72-4 3.66-6 5.49-.47.43-1 .8-1.93 1.55-1.65-13.56-3.24-26.68-4.87-40.17.89.31 1.5.49 2.08.73a64.2 64.2 0 0116.58 10.17 261 261 0 0140.43 41 59.63 59.63 0 018 14c.26.64.41 1.32.7 2.3z" class="cls-1"/><path d="M533.47 121.06c-.68 4.18-1.27 8.38-2.07 12.54a11.21 11.21 0 01-1.65 3.77 5.1 5.1 0 01-9.25-3.83c.52-2.56 1.36-5.06 1.77-7.63a30.79 30.79 0 00-17.33-32.36c-1.67-.77-3.37-1.51-5-2.41-2.44-1.37-3.14-3.79-2-6.48a4.43 4.43 0 015.72-2.82A40.46 40.46 0 01525 96.65a38.32 38.32 0 018 24.35zM522.85 146.43a7.25 7.25 0 01-2.34 4.65 36.36 36.36 0 01-10.68 7.39 4.85 4.85 0 01-6.28-1.94 4.63 4.63 0 01.64-6.39 20.21 20.21 0 012.41-1.91c2.36-1.71 4.76-3.36 7.1-5.11 3.21-2.4 6.31-1.91 8.5 1.48a8.26 8.26 0 01.65 1.83z"/></g></g></svg>