<svg xmlns="http://www.w3.org/2000/svg" id="Layer_1" data-name="Layer 1" viewBox="0 0 360 360"><defs/><defs><style>.cls-1{fill:#de2529}</style></defs><path d="M168.63 145c.2-1.23 0-1.93.25-2.69a1.05 1.05 0 01-.71.35c.36.37.25 2.49.17 3.28a1.31 1.31 0 01.54-.17.67.67 0 01-.25-.77zM167.87 151.84c0 .26-.23 1.09.16 1.33a35.8 35.8 0 01.85-7.17c-.22 0-.25-.05-.48 0 .22 0-.52 5.49-.53 5.84zM159.84 144.75c-.19-.6.64-2 .89-2.84a7.88 7.88 0 017.56-4c.25 0 .49-.42.21-.7-6-.08-8.36 4.44-9.2 6.41a.88.88 0 01-.32.57 5.18 5.18 0 01.86.56zM168.08 141.53h.01-.01z"/><path d="M168.49 137.25c-.67 1 0 1.69-.32 4.21.32-.24.45-.18.77-.35-.39-2.03.49-3.45-.45-3.86zM167.89 151.76c-3 10.39-16.39 18.6-23.3 25.81 0 .15-.1.17-.21.17a28.25 28.25 0 01-7.19 4.85.05.05 0 01-.07 0c-1.76 1.29-3.49 3.11-5.28 4.25-11.3 9.79-24.84 22.63-31.78 34.87 11.43-14.83 24.6-28.4 39.59-39 5.49-4.88 30.67-24.38 28.24-30.95zM98.1 108.52v-.01.01zM98.6 108.91a7 7 0 01.46.61c4 5.64-1 15.14-.37 19.75 1.69-6 6.69-21-2.33-22.71-9.59 10.82-16.91 25.63-20.69 40.29a2.87 2.87 0 00-.43 1.61c-.14.57.49.77.49.08 1-6.74 16.64-40.72 22-40.15.12 0 .32 0 .33.12zM123 146.44c.54-2.11.69-4.45 1.82-6.33.73-3.31 2.31-6.51 3.51-9.68a58.41 58.41 0 002-7.37c.15-1 2.32 1.86 2.39 2.35a4.23 4.23 0 011 2.32c1.28 2.2.23 5.27.73 7.44a17.26 17.26 0 00.83-7.06 9.27 9.27 0 00-4.64-5.74c-.24-2.76.39-6.1-1.81-8.4a8.24 8.24 0 01-1.47-1.59c-1.23-.66-2.21-1.73-3.73-1.37 13.37 5.67-.59 23.45-1 33.77.21.51.08 1.1.37 1.66zM71.21 165.71l.01.01v-.01h-.01z"/><path d="M70.85 166.12c-3.49 15.6-6.76 31.56-8.59 47.35.2.16.06.43.2.64.3-.17.06-.58.29-.77 1.37-8 2.73-16.29 4.56-24.31.7-7.78 3.46-15.53 3.91-23.31-.31-.06-.37.19-.37.4zM134.28 136.12c0-.58-.28-.62-.51-.15a1.19 1.19 0 01-.06.59c-.41 1.61-1 3.21-1.45 4.78-.87 4.64-2 9.48-1 14.32.32.65.5.36.63-.23a42.57 42.57 0 01.95-9.18c.11-2.4.78-4.83 1.06-7.23-.14-1.02.55-1.88.38-2.9zM139 166.79c7.46-3.86 16.81-8.06 19.46-17.27a5.55 5.55 0 01.58-2c-.37.05-.73.24-1.08.29-2.24 9.31-11.21 13.82-18.67 17.57-3.2-5 .29-13-.54-19.06.15-.94-.66-1-.49 0 .85 6.29-3.68 15.91.74 20.47zM103.44 131.74c6.73-3.82 13.31-9.58 17.25-16.42C114 121.59 107 129.13 99 133.5a15.9 15.9 0 004.44-1.76zM97.56 134.08c-5 2.36-11.35 6.89-12.67 12.66 3.11-4.92 9.04-9.63 12.67-12.66zM75.09 149.15c-.58.06-.17 1.15-.45 1.51-.38 1.39-1.1 2.72-.71 4.19.38-.58.22-1.28.44-1.85.6-.44.2-1.26.51-1.8s.65-1.67.21-2.05zM73.55 155.05c-.35-.05-.44 1.76-.06 1.71s.4-1.71.06-1.71z"/><path d="M71.52 163.75c-.41.39-.28 1.37-.3 2 .65.08.78-1.75.3-2zM73.05 157.21c-.42.32-.26 1.19-.1 1.71.25-.46.5-1.33.1-1.71zM72 161.61c-.65.31 0 2.82.24.67-.08-.28.05-.66-.24-.67zM98.1 133.78c.06.49.89.16.9-.27-.31.03-.71-.08-.9.27zM102.93 126.18c4.91-6.32 11.9-12.29 19.06-15.18-5.72.42-17.8 9.28-19.06 15.18zM195.35 136.67c-1.91 0-1.63 2.64-1.11 1.57 0-1.64 2.12-.75 3.15-.88 1.35-.32 2.55.83 3.82 1.14a12.14 12.14 0 012.63 3.23l-.17.14a2 2 0 00.38.79 3.16 3.16 0 01.92 1.94c.14.65.54 1.22.74 1.88 4.32 7.2 8.12 16.19 15.3 21 1.86-.16.1 5 1.35 3.33 1.3-2.78 1.08-4.07-.34-6.6-.93-3.28-2.61-6.77-2.05-10.25.6-2.73 2.52-6.27 5.32-6.69.56-.06.79-.35.7-.94 1.63-11.13 9.12-13.85 17.42-7.75 5.66 2.82 7.38 10.24 10.47 15-.26 1.39.91 2.47 1.07 3.81 0 .2.18.39.33.1.23-.45.54-.32.82-.15a5.06 5.06 0 004.75 0c-.92-.7-2.66.26-3.56-.84-1.47-.45-2.24-2.27-3.4-3-4.47-19.18-12.66-13.82-15.08-21.31-1.14-1.17.26 2.77-1 2.3-1.21-.15-2.67-.23-3-1.8-4.12-16 13.37-9 19-2.34 4.68 7 6.48 16.52 8.79 24.8-.05-7.31-3.4-14.35-5.69-21.2-1.85-6.44-8.35-9.17-13.49-11.86-8.23-3.22-12.09 3.25-9.72 11.44.21.67-.23 1-1.2.9-4.75.8-6.74 6.35-7.64 10.88-2.82 2-5.6 4.66-6.08 8.62-.64 4.32 1.94 8.21 2.54 12.12-8-5.37-12.21-16.13-17-24.45-.57-3-4.64-4.89-7.4-5"/><path d="M235.55 179.29c-.56 1.38 1.49-.48 1.94-.45l.1-.05c1.31-1.34 3-2.64 3.36-4.68-.17-.69.63-.77.81-.14a10.37 10.37 0 011.94 1.69c2 1.48 4.73 3.32 6.77 1 4.75-7-4.86-14.83-6.07-22-.4-2.94-17.86-9.1-17.11-7.1 5.36 2.19 12.88 3 16.47 8.19 2.55 5.24 6.15 10.34 7 16.29.22 8-6.71 3-9.24-.42-3.81-2.91-5.78-9.94-8.13-12.78.23 2.48-1.85.85-3 .59-3-.76-6.84-2-1.65 1.21 1.69 1.47 4.67-.37 5.75 1.88-.42 2.26-4.75 1.52-5.4 3.68a9.88 9.88 0 005.08-1.78c.44-.3.94-.79 1.21 0 2.98 6.38 7.84 9.26.17 14.87zM255.22 225.14c-7.42-9.66-16.3-17.77-25.15-25.81a52.67 52.67 0 01-9.7-14.13c-35.22-42.55-18.89-29.68-26.06-46.7a.28.28 0 00-.42-.11c-.08.07 0 .29 0 .37.22.59-.68 13.71 7.78 23.46a8.46 8.46 0 01.61.7 2.81 2.81 0 01.42.85.9.9 0 01.42.53 37 37 0 013.1 4.5 6.86 6.86 0 011.48 2.08 7.63 7.63 0 011.46 2 1.44 1.44 0 01.46.57c.88 1.06 1.69 2.19 2.5 3.32a17.24 17.24 0 012 2.59 4 4 0 011 1.12.88.88 0 01.45.48 1.15 1.15 0 01.57.6.63.63 0 01.45.47 6.78 6.78 0 012.07 2.92 9.19 9.19 0 011.56 2.9.64.64 0 01.36.6.06.06 0 010 .06c.83 1.43 1.66 2.87 2.5 4.3a12.78 12.78 0 011.47 2.08 2 2 0 01.6.84 26.25 26.25 0 012.94 3.45 24.64 24.64 0 013.24 3.22 50 50 0 015.75 5 22.13 22.13 0 013 2.69 9.42 9.42 0 011.56 1.53 25 25 0 013.45 3.38 22.69 22.69 0 012.49 2.6 4.65 4.65 0 011 1.09 4.2 4.2 0 011 1.12 87.9 87.9 0 017 8 8.62 8.62 0 011.49 1.84c-.07-1.82-1.97-2.91-2.85-4.51zM284.46 155c-1.24-9.88-7-19-7.65-28.89a58.47 58.47 0 01-.35-8c-.5-3.19-3.81-3.21-6-1.91-3.35 1.83-4.4 6-5.29 9.48l.06.15c-1 4.69-.15 9.41-.35 14.16.25 3.85-.76 10.51.4 13 1.28-9.88-.82-20.49 2.07-29.89.48-3.31 3.34-6.78 6.7-6.18 1.69.75 1 3.62 1.16 5.23.28 4.41.41 9.08 2.41 13.09 1.38 1.32 8.9 29.14 6.84 19.76zM297.74 222.57c-5-11.75-3.35-25.35-4.77-37.88-1.11-5.64-1.81-12.19-4.57-17 1.4 5.24 3.19 10.81 3.36 16.53 1.65 11.63-.21 31.01 5.98 38.35zM257.86 173.19c2.3-1.16-1.76-16.64-2-12.73.9 4.9 4.46 14-2.93 14.45-.56 1.49 4.71-.23 4.93-1.72z"/><path d="M285 157.45c-.27.11-.13.46-.16.8.36 2.55.87-.61.16-.8zM288.39 167.66zM288.06 166.5c-.42.25-.09 1.06.33 1.16-.01-.33.04-1.08-.33-1.16zM286 161.4c-.2.26-.18 1 .15 1.12.35-.07.25-1.28-.15-1.12zM285.61 159.66c-.33 0-.29 1.25 0 1.26s.28-1.28 0-1.26zM287.63 165.39c-.32 0-.27 1 .06 1s.2-.98-.06-1zM286.61 162.91c-.3 0-.23.9 0 .92s.27-.89 0-.92zM287.12 164.24c-.33 0-.26.84 0 .84s.28-.8 0-.84zM267.69 191.82c-2.25-2.57-5.28-3.49-8.3-4-.38-.13-.77.23-.39.46 5.16 1 8.56 6 12.66 8.57a19.69 19.69 0 00-3.97-5.03zM249.65 179.7c9.09 11.05 10.17 7.77-.14-.75-.22.21-.01.56.14.75zM121 114.91c0 .13.1-.06 0 0zM133.54 235.48c0-.34.26-.53.66-.53s.85.67.85 1.49a7.49 7.49 0 01-2.76 5.64c-.53 7.09-6.35 13.9-12.34 13.9-4.49 0-7.78-2.77-7.78-7.52 0-5.4 4.41-10.58 9.19-12.52a.76.76 0 01.56 0 6.88 6.88 0 014.57-1.63c3.06 0 5.56 2.1 5.82 6a5.72 5.72 0 001.41-3.58c0-.64-.18-.87-.18-1.25zm-2.82 7.66a9.15 9.15 0 01-4.33 1.09c-3.56 0-6-1.94-6-5a4 4 0 01.29-1.49c-3.8 2.1-6.91 6.48-6.91 10.74 0 3.85 2.45 6.27 6.22 6.27 5.09-.02 9.8-5.75 10.73-11.61zm.16-1.52a3.38 3.38 0 000-.55c0-3.57-2-5.56-4.42-5.56s-4.65 1.67-4.65 3.7c0 2.41 1.76 3.85 4.57 3.85a7.62 7.62 0 004.5-1.44zM147 249.86a.53.53 0 01.45-.29.53.53 0 01.53.53.71.71 0 01-.11.37c-1.64 2.56-3.58 5-5.76 5a2.2 2.2 0 01-2.29-2.45c0-2.37 2.5-4.92 2.5-6.78a.86.86 0 00-.93-.93c-1.41 0-3.72 1.73-5 3.3a20.49 20.49 0 00-2.73 6.06c-.11.34-.27.8-.8.8a.5.5 0 01-.53-.54 1.8 1.8 0 01.1-.63c1-3.19 2.45-6.7 3.57-9.39a.92.92 0 01.85-.69.57.57 0 01.63.59 3.86 3.86 0 01-.63 1.54l-.38.9c1.49-1.62 3.43-3 5-3a2.1 2.1 0 012.26 2.13c0 2.26-2.45 4.52-2.45 6.86a1 1 0 001.09 1.19c1.38-.05 3.13-2.23 4.63-4.57z"/><path d="M153.9 249.86a.55.55 0 01.46-.29.53.53 0 01.53.53.71.71 0 01-.11.37c-1.65 2.56-3.59 5-5.77 5-1.56 0-2.55-1-2.55-2.93 0-2.58 2.74-8.53 4.73-12.36.69-1.33 1.25-2.26 1.68-2.26a.64.64 0 01.69.67c0 1.09-1.6 3.88-3.38 6.91-1.3 2.84-2.28 5.5-2.28 7.12 0 1.22.55 1.78 1.33 1.78 1.4-.02 3.16-2.2 4.67-4.54z"/><path d="M159.81 252.42c-1.23 1.7-2.61 3-4 3s-2.44-.93-2.44-2.8 1.06-4.36 2-6.19c.82-1.59 1.25-2.26 1.65-2.26a.64.64 0 01.72.64 6.34 6.34 0 01-1.15 2.45 14.73 14.73 0 00-1.75 5.42c0 1.17.5 1.59 1.11 1.59 1.2 0 2.45-1.41 3.67-3.16a31 31 0 002.53-5c.61-1.41 1-1.92 1.41-1.92a.64.64 0 01.71.64 6.84 6.84 0 01-1.19 2.45c-.67 1.46-1.41 4-1.86 5.31l-.91 2.61a13.48 13.48 0 005.93-5.35s.19-.29.43-.29a.51.51 0 01.56.53 1 1 0 01-.11.35 14.54 14.54 0 01-7.31 6.09c-1.46 3.42-3.35 6-5.82 6a2.42 2.42 0 01-2.66-2.26c0-2.39 2.63-3.19 7.36-4.55.5-1.36.82-2.45 1.12-3.3zm-1.6 4.54c-3.56 1-5.61 1.81-5.61 3.35a1.2 1.2 0 001.36 1.2c1.35 0 3.13-1.79 4.25-4.51z"/><path d="M188.65 246.28a22.31 22.31 0 01-4.68 1.78c-1.78 6.19-4.41 9.33-9 9.33s-8.74-3.67-8.74-9.63c0-1.83.95-2.76 2.15-2.76a7.07 7.07 0 012 .58 24 24 0 009.11 1.89 18.25 18.25 0 003.27-.29c.19-.61.35-1.25.51-1.92 1.91-7.94 4.76-8.95 5.29-8.95a.59.59 0 01.66.58c0 .21-.16.37-.45.56-.8.53-2.68 2-4.12 8.24l-.26 1.09a20.09 20.09 0 004.43-1.94 3 3 0 011.12-.53.74.74 0 01.64.72 1.78 1.78 0 01-.32.71 6.29 6.29 0 00-.61 2.58c0 .51-.19.77-.67.77s-.66-.29-.66-.9a6.87 6.87 0 01.33-1.91zm-6.3 2.15a18.62 18.62 0 01-3 .24 25.56 25.56 0 01-9.65-1.89 3.71 3.71 0 00-1.25-.37c-.45 0-.74.5-.74 1.35 0 5.19 3.45 8.43 7.18 8.43s5.81-2.58 7.46-7.76zm.58-13.93c-.13 3.19-3.32 7.18-6.14 7.18-1.94 0-3.13-1.07-3.13-2.93 0-2.5 3.43-5 7.81-5.39a2 2 0 00-.26-.75.82.82 0 01-.16-.42.62.62 0 01.63-.59c.51 0 1 .59 1.17 1.7 4.2.06 6.36 1.41 10.34 1.41 3.33 0 3.7-1.86 4.42-1.86a.54.54 0 01.58.51.89.89 0 01-.21.61c-.4.58-1.81 1.94-4.81 1.94-4.17 0-6.04-1.3-10.24-1.41zm-1.38.05c-3.77.27-6.48 2.29-6.48 4.23a1.64 1.64 0 001.75 1.75c2.1 0 4.57-3.35 4.73-5.98zM197 254.38c1.41 0 3.16-2.18 4.68-4.52a.53.53 0 01.45-.29.53.53 0 01.53.53.79.79 0 01-.1.37c-1.65 2.56-3.59 5-5.77 5-1.44 0-2.37-1-2.37-2.66 0-2.13 2.31-4.5 2.31-6 0-.71-1-1-1.67-1.41a57.61 57.61 0 01-2.9 5c-.13.21-.26.37-.5.37a.51.51 0 01-.53-.48.86.86 0 01.16-.48 39.4 39.4 0 002.76-5.05v-.34c0-1.78.9-3 1.57-3a.77.77 0 01.87.77 5.29 5.29 0 01-.82 2.21c.88.69 2.53 1.06 2.53 2.31 0 1.78-2.37 4-2.37 6.19 0 .98.45 1.48 1.17 1.48z"/><path d="M208.46 249.86a.53.53 0 01.45-.29.53.53 0 01.53.53.71.71 0 01-.11.37c-1.64 2.56-3.58 5-5.76 5-1.49 0-2.48-.93-2.48-2.8a15.75 15.75 0 012-6.19c.82-1.59 1.25-2.26 1.65-2.26a.64.64 0 01.71.64 6.26 6.26 0 01-1.14 2.45 13.77 13.77 0 00-1.75 5.42c0 1.19.5 1.67 1.22 1.67 1.41-.02 3.16-2.2 4.68-4.54zm-1.65-9.75a.9.9 0 011 .93 1.31 1.31 0 01-1.2 1.25.9.9 0 01-1-.91 1.37 1.37 0 011.2-1.27z"/><path d="M219.12 249.86s.18-.29.42-.29a.53.53 0 01.56.56.72.72 0 01-.11.34c-1.86 2.88-4.83 5-7.86 5-2.58 0-4-1.28-4-3.62 0-4.39 3.91-7.63 6.76-7.63 1.59 0 2.52.8 2.52 2.21 0 2.15-3.4 4.14-7.71 4.54 0 .3-.05.61-.05.91a2.32 2.32 0 002.63 2.44c2.16-.02 5.11-1.77 6.84-4.46zm-9.17 0c3.43-.42 6-2 6-3.61a1 1 0 00-1.11-1c-1.62.04-4.04 1.96-4.84 4.61z"/><path d="M232.14 249.86a.55.55 0 01.46-.29.53.53 0 01.53.53.71.71 0 01-.11.37c-1.65 2.56-3.59 5-5.77 5A2.2 2.2 0 01225 253c0-2.37 2.5-4.92 2.5-6.78a.86.86 0 00-.93-.93c-1.41 0-3.73 1.73-5 3.3a20.75 20.75 0 00-2.74 6.06c-.1.34-.26.8-.79.8a.51.51 0 01-.54-.54 1.82 1.82 0 01.11-.63c1-3.19 2.45-6.7 3.56-9.39a.94.94 0 01.85-.69.58.58 0 01.64.59 3.92 3.92 0 01-.64 1.54l-.37.9c1.49-1.62 3.43-3 5-3a2.1 2.1 0 012.26 2.13c0 2.26-2.44 4.52-2.44 6.86a1 1 0 001.09 1.19c1.31-.03 3.07-2.21 4.58-4.55z"/><path d="M243.52 253c.14-.24.3-.32.43-.32a.44.44 0 01.42.45 3.09 3.09 0 01-2.71 2.37 2.47 2.47 0 01-2.44-2.77 2.05 2.05 0 01.05-.56c-1.3 1.86-2.87 3.33-4.52 3.33a3 3 0 01-3.06-3.3c0-3.93 4.07-8 7.34-8a2.87 2.87 0 012.58 1.2c.8-2.1 2-5.08 2.66-6.57.26-.58.64-.93 1-.93a.64.64 0 01.72.64c0 .67-.53 1.86-1.62 3.62-.32.69-1.31 3.05-2.08 5.05a20.18 20.18 0 00-1.64 5.47c0 1.17.47 1.7 1.19 1.7s1.23-.69 1.68-1.38zm-2.42-6.2c-.13-.9-.85-1.46-2.1-1.46-2.47 0-5.79 3.7-5.79 7 0 1.35.74 2.07 1.67 2.07 1.36 0 2.74-1.38 4-3.19a21.55 21.55 0 002.22-4.47z"/><path d="M161.38 145.26c-.25-.26-2.14-.84-2.4-1-.42.28-1.06-.49-1.67-.38-.61 1 1.35 2.57.67 4 .35-.05.71-.24 1.08-.29.58-.51 1.39-1.42 2.22-1 1.83 1.14 4.71 1.69 5.88 3.52-2.42.78-6 .23-8.68-.46-.12.43-.21.85-.36 1.28 3.24.35 6.83.44 10.16.48 0-.76.41-2.18-.38-2.55a41.8 41.8 0 01-5.17-2.73c-1.45-.91 8.92-3.47 6.69-5a.69.69 0 01-.24 0 5.91 5.91 0 00-1 .45s0 .06-.07.05" class="cls-1"/><path d="M193.16 146.05c-2.48-1.09-11.6-6.1-11.14-8.83 4.75-4.78 11.77-11.24 9.8-19-1.44-4.76-6.83-5.52-9.86-2-.73.36-1.43 2.43-2.26 1.49-3.24-5.71-10.7-4.54-11.7 2.2-1.34 7.09 13.15 16.09 11.3 18.59-3.5 2.67-6.9 6.08-11 7.48-.41 3.49 10.51-6 11.83-7.13 2.4-.33 4.39 3.69 6.76 4.66.87.57 7.11 5.03 6.27 2.54zM180 136.34c-4.06-5-11.34-9.66-11.09-17 2.18-6.72 8.63-5 11.19.45 3.74-7 12.45-6.5 11.21 2.7-.43 3.29-8.49 15.68-11.31 13.85zM206.71 150.09c-1-.32-6.23.76-5.58-.61 1.12-1.32 2.75-3.68 4.58-3-.2-.66-.6-1.23-.74-1.88 0 .81-.06.93-.71.88-3.13 1.6-4.5 6-8.56 4.84-3.5-.92 1.13-2.76 2.33-3.56 2.05-1.15 3.86-3.42 6-4.1a2 2 0 01-.38-.79c-2.86 1.74-5.52 4.14-8.41 5.7-2.58.2-2.33 2.84-.19 3.68 1.82 0 4-.42 1.48 1.71a3.76 3.76 0 00-.65.61c.15.44-.65.83-.37 1.22.18.17.41.42.79.24 1-.91 1.74-2.45 2.85-3.48 2.66-.82 6.54-.54 9.24-.19a3.73 3.73 0 01-1-1.55c0 .19-.21.28-.68.28z" class="cls-1"/></svg>