<?xml version="1.0" standalone="no"?>
<!DOCTYPE svg PUBLIC "-//W3C//DTD SVG 20010904//EN"
 "http://www.w3.org/TR/2001/REC-SVG-20010904/DTD/svg10.dtd">
<svg version="1.0" xmlns="http://www.w3.org/2000/svg"
 width="1152.000000pt" height="1152.000000pt" viewBox="0 0 1152.000000 1152.000000"
 preserveAspectRatio="xMidYMid meet">
<metadata>
Created by potrace 1.11, written by Peter Selinger 2001-2013
</metadata>
<g transform="translate(0.000000,1152.000000) scale(0.100000,-0.100000)"
fill="#000000" stroke="none">
<path d="M3079 11509 c-20 -4 -47 -10 -60 -13 -13 -3 -33 -7 -44 -10 -11 -2
-40 -9 -65 -15 -25 -5 -63 -18 -85 -27 -22 -9 -40 -16 -40 -15 0 1 -7 0 -15
-3 -221 -71 -462 -204 -664 -366 -72 -57 -217 -199 -267 -262 -19 -23 -41 -49
-50 -57 -51 -51 -249 -362 -249 -391 0 -6 -5 -10 -10 -10 -6 0 -9 -3 -8 -7 1
-5 -9 -30 -22 -58 -13 -27 -24 -52 -24 -55 -3 -9 -38 -105 -47 -125 -20 -48
-79 -272 -84 -320 -1 -5 -5 -30 -9 -55 -17 -91 -19 -144 -23 -535 -4 -300 -1
-414 8 -455 7 -30 12 -58 11 -62 -5 -20 122 -414 145 -451 4 -7 8 -17 9 -24 5
-32 173 -378 206 -425 11 -16 16 -28 12 -28 -3 0 -1 -7 6 -15 17 -21 100 -166
100 -176 0 -4 3 -9 8 -11 9 -4 46 -58 54 -78 7 -18 234 -357 248 -370 3 -3 17
-21 30 -40 14 -19 30 -42 37 -50 6 -8 34 -44 60 -80 26 -36 53 -72 60 -80 7
-8 44 -55 82 -105 39 -49 77 -97 84 -105 7 -8 42 -51 78 -95 35 -44 69 -85 74
-91 6 -6 30 -35 55 -65 25 -29 55 -64 68 -77 12 -12 22 -25 22 -27 0 -2 12
-17 28 -33 15 -16 47 -53 72 -81 56 -66 98 -112 155 -173 25 -26 45 -49 45
-52 0 -2 21 -27 48 -54 26 -28 88 -94 137 -148 50 -54 101 -110 115 -124 14
-15 77 -82 140 -150 63 -67 141 -150 174 -184 32 -33 113 -119 180 -190 66
-71 148 -157 181 -191 33 -34 110 -115 170 -179 61 -65 135 -144 165 -176 30
-32 81 -86 112 -122 31 -35 71 -80 90 -99 18 -20 58 -64 88 -99 30 -35 69 -80
86 -100 17 -19 39 -46 50 -59 10 -13 24 -28 29 -35 9 -9 121 -150 153 -191 98
-127 180 -247 214 -315 7 -14 15 -27 18 -30 8 -7 64 -124 63 -130 -1 -3 3 -10
8 -17 27 -32 58 -179 55 -259 -4 -101 -29 -146 -133 -241 -134 -122 -138 -126
-179 -162 -22 -19 -84 -73 -139 -120 -55 -47 -105 -90 -111 -96 -6 -5 -31 -26
-55 -47 -24 -20 -55 -46 -69 -58 -14 -12 -38 -31 -53 -43 -16 -12 -34 -27 -40
-32 -7 -6 -40 -33 -73 -60 -34 -28 -81 -66 -104 -85 -64 -52 -176 -138 -350
-269 -85 -64 -160 -120 -166 -126 -16 -13 -261 -187 -282 -200 -9 -5 -19 -13
-22 -16 -14 -17 -559 -377 -672 -444 -9 -5 -80 -49 -159 -97 -78 -49 -146 -88
-150 -88 -5 0 -9 -4 -9 -10 0 -5 -5 -10 -11 -10 -6 0 -24 -9 -40 -21 -16 -11
-29 -17 -29 -12 0 4 -4 3 -8 -3 -7 -11 -216 -134 -227 -134 -4 0 -19 -8 -33
-19 -15 -10 -58 -35 -97 -56 -38 -21 -106 -58 -150 -82 -44 -24 -98 -53 -120
-64 -22 -11 -47 -23 -55 -28 -8 -4 -25 -13 -38 -20 -13 -7 -53 -28 -90 -48
-37 -20 -98 -53 -137 -72 l-70 -36 1 -60 c1 -73 7 -96 34 -135 31 -44 76 -63
155 -65 39 -2 75 0 80 4 6 3 17 6 25 7 20 1 128 33 165 49 17 7 56 25 88 39
31 14 58 24 60 24 1 -1 36 17 77 39 41 23 106 58 145 77 38 20 73 42 77 49 4
7 8 8 8 4 0 -5 13 1 29 12 16 12 32 21 35 21 3 0 25 14 49 30 25 17 50 30 56
30 6 0 11 4 11 8 0 5 20 19 45 32 25 13 50 29 56 37 6 7 17 13 24 13 8 0 15 3
17 8 2 4 91 65 198 137 107 71 200 133 205 138 45 34 86 64 105 77 70 48 145
104 148 112 2 4 8 8 12 8 5 0 40 23 77 51 75 56 98 74 158 119 22 16 45 33 50
38 6 4 37 28 70 52 33 25 65 50 71 55 7 6 24 19 39 30 26 19 221 170 255 198
8 7 80 64 160 127 162 128 177 141 194 155 6 6 34 28 61 50 28 21 52 42 55 45
3 3 27 24 55 45 27 22 104 85 170 140 67 55 143 118 169 140 27 22 58 49 71
60 12 11 41 36 65 55 41 33 119 99 130 110 3 3 37 32 75 65 39 33 80 70 92 82
12 13 25 23 28 23 3 0 16 10 29 23 69 67 162 143 183 149 40 11 204 1 272 -17
79 -20 179 -59 250 -98 68 -36 235 -147 239 -158 2 -5 8 -9 13 -9 8 0 31 -18
73 -55 6 -5 40 -35 75 -65 91 -78 196 -176 417 -395 299 -296 394 -386 524
-495 19 -16 25 -21 100 -81 116 -93 300 -205 400 -245 43 -17 111 -61 118 -76
2 -5 9 -8 14 -8 6 0 35 -18 64 -40 29 -22 57 -40 63 -40 5 0 11 -4 13 -8 2 -5
39 -33 83 -62 44 -30 85 -58 90 -62 6 -5 46 -32 90 -60 44 -29 86 -58 93 -65
6 -6 21 -15 32 -18 11 -3 20 -11 20 -16 0 -5 5 -9 10 -9 12 0 73 -41 78 -52 2
-5 8 -8 13 -8 6 0 43 -22 84 -50 41 -27 77 -50 80 -50 4 0 21 -11 38 -24 35
-25 174 -110 332 -202 122 -70 405 -214 423 -214 6 0 12 -5 12 -10 0 -6 3 -9
8 -8 4 1 46 -12 94 -29 155 -57 269 -71 338 -43 l30 12 0 124 c0 129 0 130
-50 139 -3 0 -27 11 -54 23 -27 12 -51 22 -54 22 -23 0 -622 293 -782 382 -25
14 -81 45 -125 68 -44 24 -102 56 -128 72 -26 15 -52 28 -57 28 -6 0 -10 5
-10 10 0 6 -5 10 -11 10 -6 0 -49 23 -97 51 -48 29 -107 63 -132 77 -25 14
-56 33 -70 42 -14 10 -72 46 -130 80 -148 89 -464 293 -468 302 -2 4 -8 8 -14
8 -6 0 -41 23 -78 50 -37 28 -71 50 -74 50 -4 0 -33 19 -64 43 -31 23 -83 60
-114 81 -32 21 -65 46 -75 55 -10 9 -41 32 -68 51 -28 19 -51 38 -53 42 -2 4
-9 8 -16 8 -6 0 -18 9 -26 20 -8 11 -18 20 -23 20 -4 0 -43 28 -86 62 -43 35
-95 77 -116 93 -21 17 -43 35 -49 40 -6 6 -36 30 -66 54 -30 25 -65 54 -76 65
-12 12 -52 48 -90 81 -112 98 -300 292 -389 399 -88 107 -205 280 -205 301 0
7 -4 15 -8 17 -12 4 -68 154 -77 203 -4 22 -9 65 -10 97 l-3 56 411 415 c429
432 583 589 803 823 132 139 148 157 259 280 33 36 69 76 80 88 11 12 49 55
85 96 36 41 70 80 75 86 56 63 121 138 138 161 12 15 31 38 42 50 11 12 32 37
46 55 15 18 44 54 65 79 22 25 49 59 61 75 23 30 58 74 83 104 8 10 24 31 35
46 11 15 34 44 50 64 17 21 37 47 45 60 12 18 47 65 107 145 48 63 63 85 63
90 0 4 6 13 14 21 37 36 364 545 389 604 4 8 18 33 31 55 49 78 86 149 86 162
0 7 4 13 8 13 4 0 23 33 42 73 19 39 38 75 43 78 5 3 8 8 6 10 -1 2 13 36 31
74 56 119 93 200 95 205 8 23 18 48 26 62 5 10 9 25 9 33 0 8 4 15 8 15 5 0 9
6 9 13 0 10 32 98 63 172 11 27 61 176 65 195 2 8 13 44 24 80 20 67 66 243
81 314 5 23 10 50 13 61 9 42 24 131 32 185 1 14 8 61 13 105 17 129 24 194
29 295 2 52 5 106 6 120 1 14 -2 31 -7 38 -5 7 -4 12 2 12 7 0 8 10 2 30 -5
16 -5 32 -1 34 4 3 6 20 5 38 -2 18 -5 80 -9 138 -6 126 -12 182 -32 320 -8
58 -16 116 -18 130 -3 21 -12 66 -31 155 -4 22 -8 39 -23 100 -6 22 -10 40
-10 40 0 0 -2 7 -4 15 -9 31 -31 105 -32 110 -1 7 -35 99 -54 145 -49 123
-187 359 -257 442 -11 12 -30 37 -44 55 -27 35 -210 220 -250 253 -51 41 -191
141 -232 166 -48 30 -203 109 -260 133 -21 9 -53 22 -70 30 -39 17 -227 73
-266 80 -15 2 -27 5 -27 6 0 2 -37 9 -70 13 -17 2 -35 6 -41 10 -13 7 -591 3
-619 -5 -11 -3 -36 -8 -55 -12 -64 -11 -74 -14 -135 -31 -96 -27 -209 -67
-220 -76 -5 -5 -15 -9 -23 -9 -11 0 -52 -19 -207 -98 -158 -80 -408 -288 -540
-447 -22 -26 -53 -60 -68 -74 -115 -106 -167 -165 -269 -302 -190 -255 -276
-326 -380 -316 -34 3 -60 14 -92 38 -25 19 -46 37 -46 42 0 19 -143 293 -159
307 -3 3 -12 16 -19 30 -24 47 -129 183 -212 275 -100 110 -186 188 -310 280
-41 30 -79 59 -85 63 -25 19 -116 72 -124 72 -5 0 -11 3 -13 8 -8 20 -281 144
-389 177 -266 82 -299 86 -694 84 -187 -1 -356 -5 -376 -10z m485 -333 c29 -4
64 -9 77 -12 33 -7 65 -13 94 -18 14 -3 33 -7 43 -10 9 -3 28 -7 42 -10 14 -2
52 -14 85 -26 33 -11 67 -22 75 -24 38 -10 204 -83 290 -128 109 -58 273 -163
341 -220 26 -21 50 -38 53 -38 4 0 17 -10 30 -22 13 -13 41 -37 63 -55 53 -43
247 -236 300 -298 23 -28 54 -63 68 -80 35 -40 152 -197 182 -241 111 -167
167 -262 243 -413 23 -45 46 -79 50 -75 4 5 18 26 29 47 12 20 30 54 42 75 65
115 262 395 349 496 193 224 387 410 554 531 16 11 48 35 71 53 24 17 48 32
54 32 5 0 11 4 13 8 8 20 297 182 398 222 30 12 73 30 95 40 41 18 177 63 230
76 17 4 35 9 40 10 45 14 187 41 265 51 88 10 475 5 475 -7 0 -1 14 -3 30 -5
92 -10 402 -115 425 -144 3 -4 18 -12 34 -19 50 -22 183 -113 236 -162 9 -8
34 -31 56 -51 58 -53 132 -137 179 -203 11 -16 25 -33 31 -40 5 -6 13 -18 17
-26 4 -8 16 -28 27 -45 26 -39 140 -265 134 -265 -2 0 2 -12 10 -27 22 -43 79
-220 91 -283 2 -8 8 -33 14 -55 10 -38 19 -87 26 -130 11 -77 16 -113 20 -135
20 -105 27 -594 12 -755 -15 -154 -37 -319 -51 -383 -6 -29 -55 -192 -63 -212
-4 -8 -7 -17 -7 -20 -2 -11 -39 -107 -52 -137 -8 -17 -14 -34 -14 -37 0 -3
-11 -30 -25 -60 -14 -30 -25 -57 -25 -59 0 -3 -14 -36 -31 -74 -17 -37 -30
-69 -30 -70 0 -11 -204 -410 -213 -415 -6 -4 -7 -8 -3 -8 5 0 -5 -24 -21 -52
-72 -126 -104 -185 -113 -210 -6 -16 -15 -28 -20 -28 -5 0 -9 -8 -9 -17 0 -9
-6 -24 -13 -32 -20 -24 -87 -141 -87 -152 0 -5 -5 -9 -11 -9 -5 0 -7 -4 -4
-10 3 -5 1 -10 -4 -10 -6 0 -11 -4 -11 -10 0 -5 -18 -39 -40 -75 -22 -36 -40
-70 -40 -75 0 -6 -4 -10 -9 -10 -5 0 -13 -10 -17 -22 -3 -12 -10 -26 -15 -32
-5 -6 -41 -63 -80 -126 -39 -63 -81 -131 -94 -150 -57 -89 -318 -480 -346
-520 -18 -25 -52 -74 -77 -110 -85 -121 -279 -387 -292 -400 -3 -3 -18 -23
-35 -45 -16 -22 -31 -42 -35 -45 -3 -3 -18 -23 -35 -45 -16 -22 -31 -42 -34
-45 -4 -3 -22 -25 -40 -50 -19 -25 -43 -54 -53 -65 -9 -11 -41 -49 -70 -85
-29 -36 -55 -67 -58 -70 -3 -3 -27 -32 -55 -65 -27 -33 -57 -67 -65 -75 -8 -9
-43 -47 -77 -85 -33 -39 -82 -92 -108 -120 -83 -89 -167 -175 -168 -175 -1 0
-41 -37 -88 -82 -104 -100 -195 -182 -269 -239 -30 -24 -57 -46 -60 -50 -14
-18 -264 -179 -320 -206 -122 -58 -136 -63 -205 -83 -139 -40 -271 -34 -369
17 -36 18 -33 15 -121 123 -39 47 -79 95 -90 107 -11 11 -38 42 -60 68 -47 55
-60 70 -138 156 -208 228 -376 401 -1094 1125 -592 598 -862 889 -1148 1234
-47 58 -94 114 -103 125 -9 11 -30 38 -46 60 -17 22 -32 42 -36 45 -6 6 -79
104 -153 205 -87 119 -237 343 -237 354 0 6 -4 11 -10 11 -5 0 -10 7 -10 15 0
8 -4 15 -10 15 -5 0 -10 5 -10 11 0 6 -8 23 -19 37 -10 15 -29 45 -41 67 -75
131 -94 167 -128 235 -20 41 -39 77 -42 80 -5 5 -32 60 -35 70 0 3 -11 24 -23
48 -12 23 -19 42 -15 42 5 0 3 4 -3 8 -6 4 -18 25 -26 47 -9 22 -24 58 -34 80
-10 22 -18 42 -19 45 -1 3 -6 16 -12 30 -17 42 -55 144 -59 160 -2 8 -17 55
-34 104 -16 49 -30 96 -30 106 0 9 -3 20 -7 24 -4 3 -8 12 -9 19 -1 7 -10 41
-19 77 -10 36 -19 72 -20 80 -1 8 -5 26 -8 40 -4 14 -9 39 -12 55 -3 17 -8 39
-10 50 -19 101 -33 192 -40 260 -13 118 -16 167 -21 355 l-6 205 32 90 c17 50
32 95 34 100 10 34 99 239 106 245 3 3 12 21 20 40 8 19 30 62 49 95 18 33 41
74 49 90 9 17 20 35 24 40 5 6 29 42 54 80 25 39 71 102 102 140 60 75 232
255 244 255 4 0 21 12 37 28 148 136 494 302 665 318 16 1 39 5 51 8 12 3 53
8 91 12 38 4 70 8 72 9 5 4 221 -3 276 -9z"/>
</g>
</svg>
